<?xml version="1.0" encoding="utf-8"?><svg width="1203.3" height="3198" viewBox="0 0 1203.3 3198" xmlns="http://www.w3.org/2000/svg" xmlns:xlink="http://www.w3.org/1999/xlink"><svg id="Arrow_left" viewBox="-10 -10 44 44" width="44" height="44" xmlns="http://www.w3.org/2000/svg"><style>.ast0{fill:none}.ast1{fill:#0af}</style><path class="ast0" d="M0 0h24v24H0V0z"/><path class="ast1" d="M12 20l1.4-1.4L7.8 13H20v-2H7.8l5.6-5.6L12 4l-8 8 8 8z"/></svg><svg id="Arrow_right" viewBox="-10 -10 44 44" width="44" height="44" y="44" xmlns="http://www.w3.org/2000/svg"><style>.bst0{fill:none}.bst1{fill:#0af}</style><path class="bst0" d="M0 0h24v24H0V0z"/><path class="bst1" d="M12 4l-1.4 1.4 5.6 5.6H4v2h12.2l-5.6 5.6L12 20l8-8-8-8z"/></svg><svg id="Boat_icon" viewBox="-10 -10 660 532" width="660" height="532" y="88" xmlns="http://www.w3.org/2000/svg"><style>.cst0{fill:#7f7f7f}</style><path class="cst0" d="M480 366.1l85.2-78.1c18.1-16.6 12.3-44.4-8.6-53.4L480 201.8V80c0-8.8-7.2-16-16-16h-48V24c0-13.3-10.7-24-24-24H248c-13.3 0-24 10.7-24 24v40h-48c-8.8 0-16 7.2-16 16v121.8l-76.1 32.6c-22.5 9.6-26.4 37.8-9.6 53.2l85.6 78.5C160 402.2 109 480 12 480c-6.6 0-12 5.4-12 12v8c0 6.6 5.4 12 12 12 65.5 0 117.3-29 150.8-73.1C173 480.8 210.9 512 256 512h128c45.1 0 83-31.2 93.2-73.1C510.9 483.3 562.8 512 628 512c6.6 0 12-5.4 12-12v-8c0-6.6-5.4-12-12-12-93.6 0-148-74.8-148-113.9zM256 32h128v32H256V32zm-64 64h256v92l-115.4-49.5c-8-3.4-17.2-3.4-25.2 0L192 188V96zm256 256v64c0 35.3-28.7 64-64 64H256c-35.3 0-64-28.7-64-64v-64l-96-88 224-96 224 96-96 88z"/></svg><svg id="Car_icon" viewBox="-10 -10 532 532" width="532" height="532" y="620" xmlns="http://www.w3.org/2000/svg"><style>.dst0{fill:#7f7f7f}</style><path class="dst0" d="M152 304c0 17.7-30.3 16-48 16s-32-14.3-32-32 14.3-32 32-32 48 30.3 48 48zm256-48c-17.7 0-48 30.3-48 48s30.3 16 48 16 32-14.3 32-32-14.3-32-32-32zm103.4-88.2l-8 24c-1.6 4.9-6.2 8.2-11.4 8.2h-28.5c19.9 17.6 32.5 43.3 32.5 72v56c0 15.3-6.1 29.1-16 39.2V408c0 22.1-17.9 40-40 40h-48c-22.1 0-40-17.9-40-40v-24H160v24c0 22.1-17.9 40-40 40H72c-22.1 0-40-17.9-40-40v-40.8c-9.9-10.1-16-23.9-16-39.2v-56c0-28.7 12.6-54.4 32.5-72H20c-5.2 0-9.8-3.3-11.4-8.2l-8-24C-2 160 3.8 152 12 152h32c5.2 0 9.8 3.3 11.4 8.2l5.2 15.5 30.6-65.5c13.1-28 41.5-46.2 72.5-46.2h184.8c31 0 59.4 18.1 72.5 46.2l30.6 65.5 5.2-15.5c1.6-4.9 6.2-8.2 11.4-8.2h32c8 0 13.8 8 11.2 15.8zM95 177.5c5.6-1 11.3-1.5 17-1.5h288c5.8 0 11.5.5 17 1.5l-25.1-53.8C384 106.9 367 96 348.4 96H163.6c-18.6 0-35.6 10.9-43.5 27.7L95 177.5zM128 384c-60.5 0-58.3.2-64-.6V408c0 4.4 3.6 8 8 8h48c4.4 0 8-3.6 8-8v-24zm320-.6c-5.7.8-3.6.6-64 .6v24c0 4.4 3.6 8 8 8h48c4.4 0 8-3.6 8-8v-24.6zM400 208H112c-35.3 0-64 28.7-64 64v56c0 13.2 10.8 24 24 24h368c13.2 0 24-10.8 24-24v-56c0-35.3-28.7-64-64-64zm-70 80H182c-3.5 0-6 2.2-6 8 0 13.3 10.7 24 24 24h112c13.3 0 24-10.7 24-24 0-5.8-2.5-8-6-8z"/></svg><svg width="44" height="44" fill="#0af" viewBox="-10 -10 44 44" id="Close_icon" y="1152" xmlns="http://www.w3.org/2000/svg"><path d="M19 6.41L17.59 5 12 10.59 6.41 5 5 6.41 10.59 12 5 17.59 6.41 19 12 13.41 17.59 19 19 17.59 13.41 12z"/><path d="M0 0h24v24H0z" fill="none"/></svg><svg width="44" height="44" fill="#0af" viewBox="-10 -10 44 44" id="Email_icon" y="1196" xmlns="http://www.w3.org/2000/svg"><path d="M20 4H4c-1.1 0-1.99.9-1.99 2L2 18c0 1.1.9 2 2 2h16c1.1 0 2-.9 2-2V6c0-1.1-.9-2-2-2zm0 4l-8 5-8-5V6l8 5 8-5v2z"/><path d="M0 0h24v24H0z" fill="none"/></svg><svg viewBox="-10 -10 339.1 133.4" width="339.1" height="133.4" id="Logo_ENGIE" y="1240" xmlns="http://www.w3.org/2000/svg"><style>.gst0{fill:none}.gst1{fill-rule:evenodd;clip-rule:evenodd}.gst1,.gst2{fill:#00aeef}</style><path class="gst0" d="M-261.4-127.6h841.9v595.3h-841.9z" id="ginfo"/><g id="glogo"><path class="gst1" d="M319.1 45.8C276.4 17.3 220.6 0 159.6 0 98.5 0 42.8 17.3 0 45.8c42.5-14.1 92.3-22.9 159.6-22.9s117 8.8 159.5 22.9z"/><path class="gst2" d="M135.1 60.7c-3.1 0-4.7 2.5-5.2 5.7-.5 3.4-2.3 15.3-2.7 18.4-.2 1.8-.4 3.7-2.1 4.5-1.8.8-3.9-.4-5.7-2-1.8-1.6-28.8-24.6-28.8-24.6-1.5-1.4-3.5-2-5.4-2-4.1 0-8 2.5-8 8.7v38.4c0 3 2.1 4.9 4.6 4.9 2.8 0 4.6-1.8 5-4.5 0 0 3-18.3 3.3-20.3.4-2.4.8-4.2 3.1-4.9 2.1-.6 4 .6 6.9 3.1 2.9 2.5 27.2 24.5 27.2 24.5 1.9 1.6 3.2 2.2 5.9 2.2 2.4 0 6.7-1 6.7-8.3V66.1c.1-3.5-2.1-5.4-4.8-5.4zM309.1 101.5c-21.2 4.6-45.5-.3-45.5-15.3 0-11.3 10.5-15.9 18.8-16.6 8.7-.7 15.5 1.1 19 4.8 2.2 2.3 1.6 5.4-2.7 5.6-3.9.2-11.4.5-17.5.7-3.5.1-5.4 2-5.4 4.5 0 2 1.5 4.3 5.5 4.3 5.8 0 20.4.1 27.7.1 4.8 0 7.2-2.7 7.2-8.2 0-8.8-7.9-22-31.1-22-21 0-36.2 10.5-36.2 27.6 0 24.3 35.7 31.7 61.9 22.7 2.5-.9 4.7-2.6 4-5.4-.7-2.5-2.7-3.4-5.7-2.8zM63.2 101.5c-21.2 4.6-45.5-.3-45.5-15.3 0-11.3 10.5-15.9 18.8-16.6 8.7-.7 15.5 1.1 19 4.8 2.2 2.3 1.6 5.4-2.7 5.6-4 .2-11.4.5-17.5.7-3.5.1-5.4 2-5.4 4.5 0 2 1.5 4.3 5.5 4.3 5.8 0 20.4.1 27.7.1 4.8 0 7.2-2.7 7.2-8.2 0-8.8-7.9-22-31.1-22C18.2 59.4 3 69.9 3 87c0 24.3 35.7 31.7 61.9 22.7 2.5-.9 4.7-2.6 4-5.4-.7-2.5-2.7-3.4-5.7-2.8zM227.4 78.2c.5 13.2 1.7 24.2 2.1 28.1.5 5 3 6.4 5.6 6.4 2.5 0 5.1-1.3 5.5-6.3.4-4.2 1.6-17.3 2.3-30.3 0-.7-.4-1-1-.9l-13.8 2.2c-.4.1-.7.4-.7.8zM235.1 59.4c-6.3 0-8.2 5-8.1 8 0 .6.1 2.1.2 4.1 0 .4.4.9.9.8l14.4-2.3c.5-.1.7-.4.7-.8 0-.7.1-1.4.1-1.7 0-3-1.9-8.1-8.2-8.1zM213.9 80.5c-4.8 0-19.6.1-29.1.1-4.6 0-5.7 2.5-5.7 4.5 0 1.8 1.2 4.1 5.5 4.3 6.5.3 14.9.7 18.7.9 5.2.3 5.2 2.9 3.5 5.2-3.5 4.6-12 7.6-20.9 7.6-11.6 0-24.3-6.6-24.3-17 0-9.8 10.9-20.6 43.3-16 2.8.4 5.7-.1 6.3-2.7.7-2.8-1.1-4.6-4.8-5.6-7.3-1.9-14-2.4-20.4-2.4-21.8 0-39.3 10.4-39.3 27.2 0 18 17.4 26.7 39.1 26.7 24.3 0 36.1-13.2 36.1-24.7 0-5.8-3-8.1-8-8.1z"/></g></svg><svg id="Menu_mobile" viewBox="-10 -10 44 44" width="44" height="44" y="1374" xmlns="http://www.w3.org/2000/svg"><style>.hst0{fill:none}.hst1{fill:#0af}</style><path class="hst0" d="M0 0h24v24H0V0z" id="hBounding_Boxes"/><path class="hst1" d="M3 18h18v-2H3v2zm0-5h18v-2H3v2zm0-7v2h18V6H3z" id="hOutline_1_"/></svg><svg viewBox="-10 -10 1203.3 251.2" width="1203.3" height="251.2" id="NoordHolland_logo" y="1418" xmlns="http://www.w3.org/2000/svg"><style>.ist0,.ist1,.ist2{fill:#fcaf17}.ist1,.ist2{fill-rule:evenodd;clip-rule:evenodd}.ist2{fill:#0099da}.ist3{fill:#ed1b2f}.ist4{fill:#0099da}.ist5{fill-rule:evenodd;clip-rule:evenodd;fill:#002157}</style><g id="iForeground"><path class="ist0" d="M173.3 35.3s-9.7-8.4-10.5-13.1c-.9-5.4 4.3-14.5 9.9-22.1 8.5 6.3 17.1 15.2 18.1 20.6.8 4.7-6 14.6-6 14.6H208c-.1-.1-9.3-9.2-9.3-13.9 0-5.4 7.4-14.2 15-21.4 7.5 7.2 15 16 15 21.4 0 4.7-9.2 13.8-9.3 13.9h23.2s-6.8-9.8-6-14.6c.9-5.4 9.6-14.3 18.1-20.6 5.5 7.6 10.8 16.7 9.9 22.1-.8 4.7-10.5 13.1-10.5 13.1h22c-1.4-3.1-5.9-9.5-3.1-15.9 3.4-7.8 19.8-20.6 25.5-19.3-9.5 13.3-13.7 23.8-17.6 35.1 2.3 3.8 2.1 10.6 0 14.2H146.5c-2.1-3.7-2.3-10.4 0-14.2-3.9-11.3-8.1-21.8-17.6-35.1 5.7-1.4 22.1 11.5 25.5 19.3 2.8 6.4-1.7 12.8-3.1 15.9h22z"/><path class="ist1" d="M0 230h72.4v-90.3l48.2 90.3h93V59.3h-84.7v93l-49.5-93H0z"/><path class="ist2" d="M213.6 230h84.7v-55.1h49.5V230h74.5V59.3h-74.5v55.8h-49.5V59.3h-84.7z"/><path class="ist3" d="M185.9 206.8l-.4-.3c-2.3 1.5-4.2 1.4-6.5-.6.5-7 4.3-7.4 10.1-6.2 1 .2 2 .6 3 .6 1.9.1 3.1-1.4 2.7-3.9-.6-3.7-.8-6-.9-8.2-4.7 1-10.1-1.1-14.3 2.2l-.4.3c-6-8.8-6.7-25.1 2.4-32.8-.6-1.6-2.6-3.7-5-6.2-2.3-2.3-4.7-4.8-6.4-7.6 1.1-6.3 8.9-11.2 16.5-16.8-2.4 7.3-1.2 12 2.5 18.9 1.5 2.7 3.1 5.2 4.3 7.4 1.2 2.1 1.6 4.2 1.5 6 1.1 1.8 4.1 5.8 6.5 5.8 1.7 0 2.6-1.3 2.6-3 0-9.7-14.3-16.3-14.3-28.6 0-8.7 5.4-12.7 10.5-12.7 4.9 0 6.8 3.7 5.8 6.9 3.5 1.5 2.6 5.2 1.8 8.4-1.2 4.8-1.1 7.6 1.3 13.6-2-.2-6.5-6.4-8.7-11.3-2-4.7-2.8-10.3 2-10.7.4-1.5-1-2.8-2.4-2.8-3.6 0-5.9 3.2-5.9 8.4 0 10.5 15 17 15 28.9 0 5.5-4.1 8.6-7.8 8.6-2.9 0-5.2-1.6-6.9-3.7-.5 7.8 5.2 10.3 12.3 9.6-1.6 6.8-1.2 17.8.8 24.6-2.6.7-5.8 3.2-6.4 6 1.4 2.3 1.9 5 .1 7.5-3.3.8-6.1-2.8-7.4-5.9l-.7-.2c-2.1 2.4-4.5 6.3-7.9 5.5-.6-.6-1.8-5.7.6-7.7z"/><path class="ist2" d="M174.9 208.9c-.4-1.1 2.2-6.1 5-6.1 1.7 0 2.2 4 1.4 4.5-.3.3-3.5-.2-6.4 1.6zM185.4 219.6c-1.2-.5-3-6.6-.9-8.9 1.4-1.5 4.8 2.7 3.9 3.3-2.2 1.5-2.7 5.3-3 5.6zM200.5 221.1c1-.1 3.6-4.1 1.7-7.9-.7-1.4-5.7 0-4.8 1.1 1.4 1.6 3.5 4.2 3.1 6.8z"/><path class="ist3" d="M156.9 117.4c-1.6-5.1-2.6-12-7.4-13.4 2.5-3-.2-7.4-.7-7.1-2.5 1.7-5.8 2.7-8 .4-.5-3.5 2.4-5.4 5.2-6.3v-.4c-2.6-1.5-4.6-4.8-3.7-8 2.3-1.5 5.1-.8 6.8.8l.3-.3c-1.2-2.5-3-6.5-.7-8.4 1.8-1.3 9.1-1.3 6.8 7.1-1 3.7-1 6 .9 8.9 1.4 2.1 7.8 10.5 10.6 13.3-.4.2-.8.5-1.1.8-4.3 2.8-8.2 6.7-9 12.6z"/><path class="ist2" d="M144.2 71.8c3.1-.7 7.9 1.4 7.6 3.5-.2 1.8-4.3 2.1-4.3 1.6-.4-1.8-3-3.2-3.3-5.1zM137.1 83.7c1.1-1.5 6.2-3.5 8.1-1.1 1.3 1.7-2.3 5.1-2.6 4.4-1.2-2.4-4-2-5.5-3.3zM136.8 95.7c-.4.4-.3 4.3 6.2 2.9 1.4-.3.1-5.4-1.5-4.7-.5.3-3 3-4.7 1.8z"/><path class="ist4" d="M184.3 94.8c-1.6-1.6-4-2-6.3-2-3.6 0-6.3 1.8-9.5 2-3 .1-5-1.1-6-2.9-1.2-2.2-.5-5.9 2.1-6.7-.7 2.6.2 6.4 5.1 6.4 2.9 0 4.8-.8 8.1-.8 3.2 0 5.9 1.4 7.1 2.9l-.6 1.1z"/><path class="ist3" d="M174.7 95.5l.2-.5c6.5 3.4 11.3.1 9.3-6.5-2.9-2.2-7.9-.2-9.9.6-1.3-2.2-2.2-5.6-2.3-8.2 3.5-5 23.3-11 27.7-12.6.4 1.6-.4 4.4-1.1 6 2.3-.9 5.3-1.4 7.5-.8.2 3.4-.4 6.6-3.1 10.2 1.8 1.5 3.4 5.5 3.4 10.3 0 7.1-3.3 12.3-5.1 18.8-.6 2.2-.8 3.7-.6 5.9-2.4-1.3-3.8-3.6-4.7-6-1.5 3.7-5.8 7.9-10.4 11.3-8.4 6.2-18.5 12.6-18.2 19.8-2-1.8-3.3-4.4-4.1-6.7-5.3 4.1-5.2 3.2-7.1 10.5-.5-1-2-3-3.5-2.9-1.1 2.3-3 4.7-6 4.2-2.4-2.7-.9-7.1 1.2-8.7l-.2-.4c-2.6.4-6.9-.9-7.8-3.9.4-2.7 4.1-3.6 6.1-3.5v-.5c-2.6-.9-5.2-4.2-5.9-6.4 2.9-5.9 7.5-3.5 10 .8 1.6 2.8 2.3 3.3 4.2 3 1.7-.2 3.5-2.3 5.2-3.9-1.7-9.4 3.3-15.2 8.8-19 5.1-3.5 14.8-5.5 14.5-7.2-2.8.4-6.1.2-7.5-.8-1.5-.7-1.3-1.6-.6-2.9z"/><path class="ist1" d="M188 76.5c-2.6.9-5.7 2-8.2 3.3 2.2 1 4.5 1.7 5.7 1.4 1.5-.3 1.7-3 2.5-4.7z"/><path class="ist2" d="M135.6 125.7c.7-1.3 5.9-4.1 7.9-1.9 1.4 1.5-1.6 5.1-2 4.4-1.4-2.3-4.3-1.8-5.9-2.5zM141.6 148.7c-.2.8 2.6 3.8 7.3.2 1.4-1.1-2-5.2-3.2-3.8-.7.8-1.3 3.2-4.1 3.6zM136 140.3c0-1.7 3.7-7 6.2-6.1 2 .7 1.5 5.3.5 4.8-2.5-1.2-5.2 1.4-6.7 1.3z"/><path class="ist3" d="M152.7 160.5c4.5-7.6 13.9-9.5 23.1-5.8 1.1 1.2 1.8 2.2 2.2 3.1-6.9 5.8-8.1 16.5-5.8 25.2-3.9 2.7-7.5 4.9-10.3 9.1-2.2-2.1-3.7-.9-5-.1 0 2.8-1.5 7.3-4.9 6.9-3.1-2.2-2.7-7.5-1.6-10l-.4-.5c-2.8 1.1-6.8.8-8.8-1.8.7-2.9 3.3-4.7 5.4-5.1v-.4c-2.6-.6-3.3-3.3-4-5.4 1.2-1.3 2.6-2 4.6-2 3.6 0 5.3 2.1 6.6 4.2.5.8 1.5 3.7 2.7 3.7 3.3 0 4.8-3.2 5.6-4.9-4.3-3.5-9.3-10.8-9.4-16.2z"/><path class="ist2" d="M137.8 176.1c.2-1 5.5-3.1 7.7-1.4 1.3 1.1-.4 4-1.7 4.1-.5.1-3.4-2.4-6-2.7zM138 191.1c-.6-1 1.5-6.9 4.5-7 2.1-.1 2.5 4.5 1.6 4.5-2.7-.1-5.3 2.3-6.1 2.5zM147.3 202.1c.5.4 7 0 7.3-4.5.1-2.3-4.7-3.8-4.6-1.8 0 2.1-.7 4.7-2.7 6.3z"/><path class="ist0" d="M223.6 68.4h18.2v6.7h-18.2v-6.7zM263.9 68.4h18.2v6.7h-18.2v-6.7zM223.6 141.1h18.2v6.7h-18.2v-6.7zM263.9 141.1h18.2v6.7h-18.2v-6.7zM221 214.5h18.3v6.6H221v-6.6zM229 107.8c-1.1-1.2-1.2-2.2-1.6-3.9-.4-1.7-.9-3.9-3.1-6.7-2.1 1-3.4.9-5.3.1 1.8-1.7 3-3.3 3.4-4.2-1.5-.5-3.3-1.4-4.4-2.2 1.1-1.7 2.8-2.4 4.7-2.9-1.3-1.4-2.3-3.1-3.1-4.6 5.4-2.1 7.9 1.1 8.2 6.6.1 1.1.9 2 1.5 2.9.6.8 1.8 2 2.7 3.1l-.3 2.3c-.2 3.2-.8 7.1-2.7 9.5z"/><path class="ist0" d="M233.2 114.9c-3.4 1.6-6.5 1.1-7.8-1.5 7.1-1.2 8.7-7.8 9.4-13.8.4-3.6.8-6.8 1.1-9.7.2-2.4.5-4.6 1-5.9-1.5-1.7-1-4.7-1.1-6.4 2.1.1 4.5 1.1 6 2.6 1.8-.5 4.7-.6 6.8 0 1.7-1.9 4.7-2.5 7-2.2-1.2 1.8-1 4.1-2.1 5.5 1.6 3.7 1.8 12.5 2.3 16.8-.8 6.8-6.8 12.6-11.7 16.3 0 1 .4 2 .3 3.1-1.6 2.5-3.2 3.4-5.4 5.1-1.8 1.4-4 3.3-6 7.4 1.1 3-.2 5-3.1 6.2-.2-1.4-.4-3.8-1.8-4.6-1.1 1.4-2.8 2.7-4.7 2.8-.7-1.6-.6-3.5 0-5-1.6.4-3.3.7-4.9-.1.9-5.6 4.3-5.5 8.5-5.6.4 0 1.4 0 1.7-.3 1.9-1.8 4.5-10.7 4.5-10.7zM265.3 130.3c-2.4 2-4.9 3.1-7.7 4.3-.2 1.4-.8 2.9-2.1 3.4-.7-1-1.8-3.1-2.7-3.8-.4 2.1-1.8 3.9-3.3 5.2-1.6-.9-2.1-3.2-2-4.8-1.3 1-2.9 1.8-4.3 2.3-1.3-6.9 5.1-9.1 10.1-7.7 1.3-.6 2.6-1.3 3.6-1.9-1.2-1.4-2.3-3.8-1.8-5.6 2.7-.8 6.8-5.3 9.9-6 .2 1.9 1.3 4.2 2.4 5.9-3.3 1.9-3.1 6.3-2.1 8.7z"/><path class="ist2" d="M251 84.4c.4 1.1-3.2 3.5-3.9 4-.2-1.2-.3-2.7-.1-2.9.3-.4 3.1-.9 4-1.1z"/><path class="ist4" d="M243.2 97c-1.9-.6-1.9-2.6-1.9-4 .8-.2 1.9.3 2.9.3-.1-1.4-1-2.1-1.9-2.7.1-.3.2-.7.3-.9 1.9.3 2.7.3 4.6.2.1.3.2.7.3.9-.9.6-2.2 1.1-2.3 2.5 1.2.1 2.4-.3 3.1 0-.1 1.5-.1 3.3-2.1 3.9.7 3.3-.8 5.8-1.7 6.2-1-.7-2.1-3.2-1.3-6.4z"/><path class="ist0" d="M233.5 188.5c-3.4 1.6-6.7.9-8.1-1.8 10.9-1.8 8.6-16.3 10.7-24.5.6-2.3 1.2-4.4 1.9-5.7-1.2-1.7-.2-5.3-.1-6.5 2 .4 4.3 1.8 5.6 3.6 1.8-.2 4.7.2 6.7 1.1 2-1.6 5.1-1.9 7.3-1.2-1.4 1.6-1.9 4.3-3 5.2 1.2 4.3.7 10.4 1.2 15-.8 6.8-6.8 12.6-11.7 16.3 0 1 .4 2 .3 3.1-1.6 2.5-3.2 3.4-5.4 5.1-1.8 1.4-3.9 3.3-5.9 7.2.9 3.2-.2 5.2-3.2 6.4-.2-1.4-.4-3.8-1.7-4.6-1.3 1.4-2.8 2.7-4.8 2.8-.7-1.6-.6-3.5.1-5-1.7.4-3.3.7-4.9-.1.9-5.6 4.3-5.5 8.5-5.6.4 0 1.4 0 1.7-.3 1.9-1.8 4.8-10.5 4.8-10.5zM262.6 203.9c-2.3 1.8-3.2 2.5-5.8 4-.1 1.4-.6 3.4-2.1 3.9-.6-1.2-1.9-3.5-2.9-4.3-.5 2.1-1.8 3.9-3.3 5.2-1.6-.9-2-3-2.1-4.8-1.3.9-2.8 1.8-4.3 2.3-1.5-6.1 4.8-8.6 9.9-7.3 1.1-.3 2-1 3-1.7-1.5-1.9-2.1-4.1-1.5-6.4 3.5-1.4 6.9-5.4 10.4-5.6-.3 1.9-.3 4.6.2 5.9-1.5 1.4-3.3 5.9-1.5 8.8z"/><path class="ist0" d="M228.9 181c-1-1.1-1.1-2.1-1.5-3.8-.4-1.7-.9-3.9-3.1-6.7-2.1 1-3.4.9-5.3.1.8-.9 2.9-3.3 3.4-4.3-1.5-.4-3-1.2-4.4-2.1 1.1-1.7 2.9-2.4 4.9-2.9-1.1-1.3-2.5-3-3.4-4.5 5-2.5 8.1 1.3 8.5 6.8.1.8.5 1.4.9 2l.5.6c.6.8 1.7 1.9 2.7 3-.5 4.2-1.1 9-3.2 11.8z"/><path class="ist2" d="M239.2 84.5c-.4 1.1 3.1 3.4 3.8 4 .2-1.2.3-2.7.1-2.9-.3-.5-3-.9-3.9-1.1z"/><path class="ist0" d="M267.4 185.5c-6.7.5-13.3 8-20.1 5.7 4.8-3.6 10.5-9.3 11.2-15.8 2.5.7 3.7.2 6.5-.2 3-.5 6.7-1 10.2 1.5 3.9.6 7.2-1.6 7.2-3.9 0-2.5-1.7-3.1-3.7-3.1-4.4 0-8.1 2.2-12.6 2.2-4.4 0-8-3-8-9 0-6.3 5.6-9.4 10.7-7.9 1.9-4 6.3.1 11.8.1 2.6 0 4.7-.8 7.1-3 .7 2.5-2.1 5.7-6.6 7.7-5.9 2.6-13.6 3.2-13.3-1.2-2.7-1.1-5.7 1.1-5.7 4.2 0 2.5 1.6 4.6 4 4.6 4.2 0 8-2 12.9-2 3.5 0 7.9 1.6 7.9 7.3 0 6.3-6.3 8.5-9.5 8.6.4 4.8 2.2 6.1 6.4 6.5.2 4.4-1.5 9.4-3.2 13.4.9 1.6 1.2 2.8 1 5.1-1.4-.3-2.9-.9-4-1.7-.6 2-2.1 4.3-4.1 5.4-1.4-.4-1.9-1.9-2.4-3.2-1.1 1-3.1 2.2-4.7 2-1.7-5.1 2.2-8.4 6.7-8.6.8-1.5 2.1-4 1.8-5.8-2.5.7-4.1 1.8-5.9 3.8-1.7-1.7-2.1-4.5-2.1-6.9.1-2 .3-4 .5-5.8z"/><path class="ist2" d="M251.8 159.5c.3 1.2-3.7 2.9-4.5 3.3 0-1.2.1-2.7.3-2.9.4-.3 3.3-.3 4.2-.4z"/><path class="ist4" d="M242.1 170.8c-1.8-.9-1.5-2.7-1.3-4.2.9-.1 1.8.7 2.9.8.2-1.3-.8-2.3-1.5-3.1.2-.3.3-.6.5-.9 1.8.6 2.6.7 4.5.9.1.3.1.7.1 1-1 .4-2.3.8-2.7 2.2 1.3.3 2.4.1 3.1.5-.3 1.5-.7 3.4-2.7 3.4-1.2 2.8.1 4.6-.6 6-2-1-3.7-3.5-2.3-6.6z"/><path class="ist2" d="M240.1 157.7c-.6 1 2.5 3.9 3.1 4.5.4-1.2.7-2.6.6-2.9-.2-.4-2.9-1.3-3.7-1.6z"/><path class="ist0" d="M267.4 112.1c-6.6.4-13.3 7.9-20 5.7 4.8-3.7 10.3-9.3 11-15.7v-.2c2.5.8 3.7.2 6.6-.2 3-.5 6.4-.9 10.1 1.3 3.9.6 7.2-1.6 7.2-3.9 0-2.5-1.7-3.1-3.8-3.1-4.4 0-8.1 2.2-12.6 2.2-4.4 0-8-3-8-9 0-6.3 5.6-9.4 10.7-7.9 1.9-4 6.4 0 11.9 0 2.6 0 4.7-.8 7.1-3 .7 2.5-2.1 5.7-6.6 7.7-5.9 2.6-13.7 3.3-13.3-1.1-2.7-1.1-5.7 1.1-5.7 4.2 0 2.5 1.6 4.6 4 4.6 4.2 0 8-2 12.9-2 3.5 0 7.9 1.6 7.9 7.3 0 5.8-5.4 8.1-8.8 8.5-.2.1-.5.1-.8.1.7 5 7.2 5.9 11 6.3.2 4.6-1.9 9.7-3.7 13.8.9 1.7 1 3.1.9 5.1-1.4-.3-2.7-.9-3.9-1.7-.6 2.1-2.2 4.5-4.1 5.4-1.4-.4-2-2-2.4-3.2-1.4 1.1-2.9 2.3-4.7 2-1.7-5.1 2.4-8.6 6.7-8.6.6-1.1 2.8-4.6 2.4-6-1.9.2-4.2 1.2-6 3.4l-.5.7c-2.6-2.8-5.5-8.5-5.5-12.7z"/><path class="ist5" d="M473 230h10.7v-50.4l-.4-7.9 32.9 58.3h15v-70.7h-10.9V210l.4 8.6-33.6-59.3H473zM572.8 231.2c15 0 26.1-9.5 26.1-28.5 0-18.1-8.2-28.7-25.4-28.7-15.3 0-26.1 10.6-26.1 29.3 0 17.6 9.4 27.9 25.4 27.9zm.6-8.5c-11.7 0-15.4-9.1-15.4-19.9 0-9.9 3.2-20.4 15.2-20.4 12.2 0 15.1 10.6 15.1 20.3 0 10.4-3 20-14.9 20zM635.3 231.2c15 0 26.1-9.5 26.1-28.5 0-18.1-8.2-28.7-25.4-28.7-15.3 0-26.1 10.6-26.1 29.3 0 17.6 9.4 27.9 25.4 27.9zm.6-8.5c-11.7 0-15.4-9.1-15.4-19.9 0-9.9 3.2-20.4 15.2-20.4 12.2 0 15.1 10.6 15.1 20.3 0 10.4-3 20-14.9 20zM676 230h10.4v-39.2c2.5-3.6 7.5-7.6 13.6-7.6 3.1 0 4.6.2 6.7.7l1.6-8.8c-1.3-.4-3.5-.9-6.7-.9-7.3 0-12.6 4.6-15.2 8.5v-7.3H676V230zM737.3 230.9c6.2 0 10.5-3.1 13.4-5.8v4.9h10.4v-75.4h-10.4v20.6c-3.2-.9-5.3-1.2-9.8-1.2-14.8 0-27 9.6-27 28.6 0 24 13.2 28.3 23.4 28.3zm1.4-8.7c-8.2 0-14.3-5.4-14.3-19.3 0-10.9 4.6-20.5 16.6-20.5 4.7 0 7.4.8 9.7 1.5v33.4c-2.3 1.5-7.4 4.9-12 4.9zM774 197h29.8v8.7H774zM818.4 230h10.7v-31.2h36.3V230h10.7v-70.7h-10.7v30.9h-36.3v-30.9h-10.7zM917.7 231.2c15 0 26.1-9.5 26.1-28.5 0-18.1-8.2-28.7-25.4-28.7-15.3 0-26.1 10.6-26.1 29.3 0 17.6 9.4 27.9 25.4 27.9zm.6-8.5c-11.7 0-15.4-9.1-15.4-19.9 0-9.9 3.2-20.4 15.2-20.4 12.2 0 15.1 10.6 15.1 20.3 0 10.4-3 20-14.9 20zM958.4 154.6h10.4V230h-10.4zM987.1 154.6h10.4V230h-10.4zM1027.8 230.8c9.4 0 15-4.7 18-6.8.9 4.8 6.6 6.6 11.7 6.6.8 0 1.5 0 2.2-.1l.5-8.1c-2.6-.2-5-.9-5-4.3v-28.6c0-11.2-7.2-15.4-20.7-15.4-8.3 0-15.3 2.1-18.8 3.6l2.1 7.9c3.2-.8 9.2-2.5 14.4-2.5 8.8 0 12.8 1.6 12.8 9.2v6.1l-12 .2c-9.5.1-21.7 3-21.7 16.5 0 10.3 6.1 15.7 16.5 15.7zm2.5-8.3c-5.2 0-8.8-2.1-8.8-8.3 0-5 4.3-8.4 11.8-8.6l11.7-.5v12.6c-2.1.9-8.9 4.8-14.7 4.8zM1075.5 230h10.4v-41.2c3.9-2.3 9.7-5.7 15.6-5.7 8.8 0 10.2 4.6 10.2 13.5V230h10.3v-34.9c0-10.3-1-21.1-17.4-21.1-7.8 0-14.1 4.2-18.7 7.4v-6h-10.4V230zM1159.5 230.9c6.2 0 10.5-3.1 13.4-5.8v4.9h10.4v-75.4h-10.4v20.6c-3.2-.9-5.3-1.2-9.8-1.2-14.8 0-27 9.6-27 28.6 0 24 13.2 28.3 23.4 28.3zm1.4-8.7c-8.2 0-14.3-5.4-14.3-19.3 0-10.9 4.6-20.5 16.6-20.5 4.7 0 7.4.8 9.7 1.5v33.4c-2.3 1.5-7.4 4.9-12 4.9z"/><g><path class="ist5" d="M473 130h10.8V67.9h11.3c10.6 0 15.2 5.1 15.2 14.8 0 9.9-6.6 14.7-17.6 14.7h-4.4v8.7h3.8c19.9 0 29.4-10.8 29.4-23.8 0-14.8-9.6-23-24.2-23H473V130zM533 130h10.4V90.8c2.5-3.6 7.5-7.6 13.6-7.6 3.1 0 4.6.2 6.7.7l1.6-8.8c-1.3-.4-3.5-.9-6.7-.9-7.3 0-12.6 4.6-15.2 8.5v-7.3H533V130zM596.3 131.2c15 0 26.1-9.5 26.1-28.5 0-18.1-8.2-28.7-25.4-28.7-15.3 0-26.1 10.6-26.1 29.3 0 17.6 9.4 27.9 25.4 27.9zm.6-8.5c-11.7 0-15.4-9.1-15.4-19.9 0-9.9 3.2-20.4 15.2-20.4 12.2 0 15.1 10.6 15.1 20.3 0 10.4-3 20-14.9 20zM648.2 130h13.7l20-54.6h-10.8l-12.1 35-3.7 11.6-3.3-11.4-10.8-35.2h-11.3zM693.1 130h10.5V75.4h-10.5V130zm5.1-63.6l8-8-8-7.9-7.8 7.9 7.8 8zM721.8 130h10.4V88.8c3.9-2.3 9.7-5.7 15.6-5.7 8.8 0 10.2 4.6 10.2 13.5V130h10.3V95.1c0-10.3-1-21.1-17.4-21.1-7.8 0-14.1 4.2-18.7 7.4v-6h-10.4V130zM811.4 131c5.7 0 10.1-1.1 13.2-1.9l-1.6-8.2c-2.8.4-6.3 1.4-10.8 1.4-15 0-19.1-6.3-19.1-19.9 0-13.3 6.9-19.7 16.2-19.7 6 0 9.3 1.2 12.6 2.6l3-8c-3.3-1.7-8-3.3-15.6-3.3-16.5 0-26.9 11-26.9 28.5 0 20.1 8.5 28.5 29 28.5zM837.9 130h10.5V75.4h-10.5V130zm5.1-63.6l8-8-8-7.9-7.8 7.9 7.8 8zM889.9 131.2c8.3 0 15.2-1.6 18.2-2.6l-1.7-8.3c-3.4.8-10.2 2.2-14.1 2.2-10.6 0-18.6-2.4-18.8-17.3h35.9v-3.7c0-17.7-6.3-27.5-20.9-27.5-14.5 0-25.5 7.5-25.5 29.6 0 21.2 10.5 27.6 26.9 27.6zm-16.2-33.3c.8-10.7 6.1-16.3 13.6-16.3 7.7 0 11.3 6.6 11.2 16.3h-24.8z"/></g></g></svg><svg width="44" height="44" fill="#0af" viewBox="-10 -10 44 44" id="Phone_icon" y="1670" xmlns="http://www.w3.org/2000/svg"><path d="M0 0h24v24H0z" fill="none"/><path d="M6.62 10.79c1.44 2.83 3.76 5.14 6.59 6.59l2.2-2.2c.27-.27.67-.36 1.02-.24 1.12.37 2.33.57 3.57.57.55 0 1 .45 1 1V20c0 .55-.45 1-1 1-9.39 0-17-7.61-17-17 0-.55.45-1 1-1h3.5c.55 0 1 .45 1 1 0 1.25.2 2.45.57 3.57.11.35.03.74-.25 1.02l-2.2 2.2z"/></svg><svg id="Pin_boat_blue_normal" viewBox="-10 -10 38 40" width="38" height="40" y="1714" xmlns="http://www.w3.org/2000/svg"><style>.kst0{fill:#0af}.kst1{fill:#fff}</style><path class="kst0" d="M9 0C4 0 0 4 0 9c0 4.2 2.8 7.7 6.7 8.7L9 20l2.3-2.3c3.9-1 6.7-4.5 6.7-8.7 0-5-4-9-9-9z"/><path class="kst1" d="M11.4 10.7l1.3-1.2c.3-.2.2-.7-.1-.8l-1.1-.5V6.4c0-.1-.1-.2-.2-.2h-.7v-.7c0-.2-.2-.4-.4-.4H7.9c-.2 0-.4.2-.4.4v.6h-.7c-.1 0-.2.1-.2.2v1.8l-1.1.6c-.4.1-.4.5-.2.8l1.3 1.2c0 .5-.8 1.7-2.2 1.7-.1 0-.2.1-.2.2v.1c0 .1.1.2.2.2 1 0 1.8-.4 2.3-1.1.2.6.7 1.1 1.4 1.1H10c.7 0 1.2-.5 1.4-1.1.5.7 1.3 1.1 2.3 1.1.1 0 .2-.1.2-.2v-.1c0-.1-.1-.2-.2-.2-1.5 0-2.3-1.2-2.3-1.7zM8 5.6h2v.5H8v-.5zm-.9 1h3.8V8l-1.7-.8c-.1-.1-.3-.1-.4 0L7.1 8V6.6zm3.8 3.8v1c0 .5-.4 1-1 1H8c-.5 0-1-.4-1-1v-1L5.6 9.1 9 7.7l3.4 1.4-1.5 1.3z"/></svg><svg id="Pin_boat_purple_pushed" viewBox="-10 -10 38 40" width="38" height="40" y="1754" xmlns="http://www.w3.org/2000/svg"><style>.lst0{fill:#e62d87}.lst1{fill:#fff}</style><path class="lst0" d="M9 0C4 0 0 4 0 9c0 4.2 2.8 7.7 6.7 8.7L9 20l2.3-2.3c3.9-1 6.7-4.5 6.7-8.7 0-5-4-9-9-9z"/><path class="lst1" d="M11.4 10.7l1.3-1.2c.3-.2.2-.7-.1-.8l-1.1-.5V6.4c0-.1-.1-.2-.2-.2h-.7v-.7c0-.2-.2-.4-.4-.4H7.9c-.2 0-.4.2-.4.4v.6h-.7c-.1 0-.2.1-.2.2v1.8l-1.1.6c-.4.1-.4.5-.2.8l1.3 1.2c0 .5-.8 1.7-2.2 1.7-.1 0-.2.1-.2.2v.1c0 .1.1.2.2.2 1 0 1.8-.4 2.3-1.1.2.6.7 1.1 1.4 1.1H10c.7 0 1.2-.5 1.4-1.1.5.7 1.3 1.1 2.3 1.1.1 0 .2-.1.2-.2v-.1c0-.1-.1-.2-.2-.2-1.5 0-2.3-1.2-2.3-1.7zM8 5.6h2v.5H8v-.5zm-.9 1h3.8V8l-1.7-.8c-.1-.1-.3-.1-.4 0L7.1 8V6.6zm3.8 3.8v1c0 .5-.4 1-1 1H8c-.5 0-1-.4-1-1v-1L5.6 9.1 9 7.7l3.4 1.4-1.5 1.3z"/></svg><svg id="Pin_car_blue_normal" viewBox="-10 -10 38 40" width="38" height="40" y="1794" xmlns="http://www.w3.org/2000/svg"><style>.mst0{fill:#0af}.mst1{fill:#fff}</style><path class="mst0" d="M9 0C4 0 0 4 0 9c0 4.2 2.8 7.7 6.7 8.7L9 20l2.3-2.3c3.9-1 6.7-4.5 6.7-8.7 0-5-4-9-9-9z"/><path class="mst1" d="M6.9 10c0 .4-.6.3-1 .3s-.6-.3-.6-.6c0-.4.3-.7.7-.7.3 0 .9.6.9 1zM12 9c-.4 0-1 .6-1 1s.6.3 1 .3.6-.3.6-.6c.1-.4-.2-.7-.6-.7zm2.1-1.8l-.2.5c0 .1-.1.2-.2.2h-.6c.4.4.7.9.7 1.4v1.1c0 .3-.1.6-.3.8v.8c0 .4-.4.8-.8.8h-1c-.4 0-.8-.4-.8-.8v-.5H7.1v.5c0 .4-.4.8-.8.8h-1c-.4 0-.8-.4-.8-.8v-.8c-.2-.2-.3-.5-.3-.8V9.3c0-.6.3-1.1.7-1.4h-.6c-.1 0-.2-.1-.2-.2l-.2-.5c-.1-.1.1-.3.2-.3h.6c.2 0 .3.1.3.2l.1.3.6-1.3c.3-.6.8-.9 1.5-.9h3.7c.6 0 1.2.4 1.4.9l.6 1.3.1-.3c0-.1.1-.2.2-.2h.6c.2 0 .4.2.3.3zm-8.3.2H12.2l-.5-1.1c-.2-.3-.5-.6-.9-.6H7.2c-.4.1-.8.3-.9.7l-.5 1zm.6 4.2H5.1v.4c0 .1.1.2.2.2h1c.1 0 .2-.1.2-.2v-.4zm6.4-.1h-1.3v.5c0 .1.1.2.2.2h1c.1 0 .2-.1.2-.2v-.5zM11.9 8H6.1c-.7 0-1.3.6-1.3 1.3v1.1c0 .3.2.5.5.5h7.4c.3 0 .5-.2.5-.5V9.3c0-.7-.6-1.3-1.3-1.3zm-1.4 1.6h-3c-.1 0-.1 0-.1.2 0 .3.2.5.5.5h2.2c.3 0 .5-.2.5-.5 0-.1 0-.2-.1-.2z"/></svg><svg id="Pin_car_purple_pushed" viewBox="-10 -10 38 40" width="38" height="40" y="1834" xmlns="http://www.w3.org/2000/svg"><style>.nst0{fill:#e62d87}.nst1{fill:#fff}</style><path class="nst0" d="M9 0C4 0 0 4 0 9c0 4.2 2.8 7.7 6.7 8.7L9 20l2.3-2.3c3.9-1 6.7-4.5 6.7-8.7 0-5-4-9-9-9z"/><path class="nst1" d="M6.9 10c0 .4-.6.3-1 .3s-.6-.3-.6-.6c0-.4.3-.7.7-.7.3 0 .9.6.9 1zM12 9c-.4 0-1 .6-1 1s.6.3 1 .3.6-.3.6-.6c.1-.4-.2-.7-.6-.7zm2.1-1.8l-.2.5c0 .1-.1.2-.2.2h-.6c.4.4.7.9.7 1.4v1.1c0 .3-.1.6-.3.8v.8c0 .4-.4.8-.8.8h-1c-.4 0-.8-.4-.8-.8v-.5H7.1v.5c0 .4-.4.8-.8.8h-1c-.4 0-.8-.4-.8-.8v-.8c-.2-.2-.3-.5-.3-.8V9.3c0-.6.3-1.1.7-1.4h-.6c-.1 0-.2-.1-.2-.2l-.2-.5c-.1-.1.1-.3.2-.3h.6c.2 0 .3.1.3.2l.1.3.6-1.3c.3-.6.8-.9 1.5-.9h3.7c.6 0 1.2.4 1.4.9l.6 1.3.1-.3c0-.1.1-.2.2-.2h.6c.2 0 .4.2.3.3zm-8.3.2H12.2l-.5-1.1c-.2-.3-.5-.6-.9-.6H7.2c-.4.1-.8.3-.9.7l-.5 1zm.6 4.2H5.1v.4c0 .1.1.2.2.2h1c.1 0 .2-.1.2-.2v-.4zm6.4-.1h-1.3v.5c0 .1.1.2.2.2h1c.1 0 .2-.1.2-.2v-.5zM11.9 8H6.1c-.7 0-1.3.6-1.3 1.3v1.1c0 .3.2.5.5.5h7.4c.3 0 .5-.2.5-.5V9.3c0-.7-.6-1.3-1.3-1.3zm-1.4 1.6h-3c-.1 0-.1 0-.1.2 0 .3.2.5.5.5h2.2c.3 0 .5-.2.5-.5 0-.1 0-.2-.1-.2z"/></svg><svg width="44" height="44" viewBox="-10 -10 44 44" id="baseline-arrow_downward-24px" y="1874" xmlns="http://www.w3.org/2000/svg"><path fill="none" d="M0 0h24v24H0V0z"/><path fill="#010101" d="M20 12l-1.41-1.41L13 16.17V4h-2v12.17l-5.58-5.59L4 12l8 8 8-8z"/></svg><svg id="baseline-person_pin-24px" viewBox="-10 -10 38 40" width="38" height="40" y="1918" xmlns="http://www.w3.org/2000/svg"><style>.pst0{fill:#0af}.pst1{fill:#fff}</style><path class="pst0" d="M9 0C4 0 0 4 0 9c0 4.2 2.8 7.7 6.7 8.7L9 20l2.3-2.3c3.9-1 6.7-4.5 6.7-8.7 0-5-4-9-9-9z"/><path class="pst1" d="M7.1 9.9c0 .3-.6.3-.9.3-.3 0-.6-.3-.6-.6s.3-.6.6-.6.9.6.9.9zm4.7-.9c-.3 0-.9.6-.9.9 0 .3.6.3.9.3.3 0 .6-.3.6-.6s-.3-.6-.6-.6zm1.9-1.6l-.1.4c0 .1-.1.2-.2.2h-.5c.4.3.6.8.6 1.3v1c0 .3-.1.5-.3.7v.8c0 .4-.3.7-.7.7h-.9c-.4 0-.7-.3-.7-.7v-.4H7.4v.4c0 .4-.3.7-.7.7H5.6c-.4 0-.7-.3-.7-.7V11c-.2-.2-.3-.4-.3-.7v-1c0-.5.2-1 .6-1.3h-.6c-.1 0-.2-.1-.2-.2l-.1-.4c0-.1.1-.3.2-.3h.6c.1 0 .2.1.2.2l.1.3.6-1.3c.2-.5.8-.9 1.3-.9h3.4c.6 0 1.1.3 1.3.9l.6 1.2.1-.3c0-.1.1-.2.2-.2h.6c.2.1.3.2.2.4zM6 7.5H11.9l-.5-1c0-.3-.4-.5-.7-.5H7.3c-.3 0-.7.2-.8.6l-.5.9zm.6 3.9H5.4v.5c0 .1.1.1.1.1h.9c.1 0 .1-.1.1-.1l.1-.5zm5.9 0h-1.2v.4c0 .1.1.1.1.1h.9c.1 0 .1-.1.1-.1l.1-.4zm-.8-3.3H6.3c-.7 0-1.2.5-1.2 1.2v1c0 .2.2.4.4.4h6.8c.2 0 .4-.2.4-.4v-1c.1-.7-.4-1.2-1-1.2zm-1.3 1.5H7.7c-.1 0-.1 0-.1.1 0 .2.2.4.4.4h2c.2 0 .4-.2.4-.4.1-.1 0-.1 0-.1z"/></svg><svg id="baseline-person_pin-24px_boat" viewBox="-10 -10 44 44" width="44" height="44" y="1958" xmlns="http://www.w3.org/2000/svg"><style>.qst0{fill:none}.qst1{fill:#0af}.qst2{fill:#fff}</style><path class="qst0" d="M0 0h24v24H0V0z"/><path class="qst1" d="M12 2c-5 0-9 4-9 9 0 4.2 2.8 7.7 6.7 8.7L12 22l2.3-2.3c3.9-1 6.7-4.5 6.7-8.7 0-5-4-9-9-9z"/><path class="qst2" d="M14.4 12.4l1.3-1.2c.3-.2.2-.7-.1-.8l-1.1-.5V8.1c0-.1-.1-.2-.2-.2h-.7v-.7c0-.2-.2-.4-.4-.4H11c-.2 0-.4.2-.4.4v.6h-.8c-.1 0-.2.2-.2.3v1.8l-1.1.5c-.3.1-.4.6-.1.8l1.3 1.2c0 .5-.8 1.7-2.2 1.7-.1 0-.2.1-.2.2v.1c0 .1.1.2.2.2 1 0 1.8-.4 2.3-1.1.2.6.7 1.1 1.4 1.1H13c.7 0 1.2-.5 1.4-1.1.5.7 1.3 1.1 2.3 1.1.1 0 .2-.1.2-.2v-.1c0-.1-.1-.2-.2-.2-1.5 0-2.3-1.2-2.3-1.7zm-3.4-5h2v.5h-2v-.5zm-.9.9h3.8v1.4L12.2 9c-.1-.1-.3-.1-.4 0l-1.7.7V8.3zm3.8 3.9v1c0 .5-.4 1-1 1H11c-.5 0-1-.4-1-1v-1l-1.4-1.3L12 9.4l3.3 1.4-1.4 1.4z"/></svg><svg viewBox="-10 -10 284 532" width="284" height="532" id="facebook_icon" y="2002" xmlns="http://www.w3.org/2000/svg"><path d="M76.7 512V283H0v-91h76.7v-71.7C76.7 42.4 124.3 0 193.8 0c33.3 0 61.9 2.5 70.2 3.6V85h-48.2c-37.8 0-45.1 18-45.1 44.3V192H256l-11.7 91h-73.6v229"/></svg><svg width="44" height="44" viewBox="-10 -10 44 44" id="outline-menu-24px" y="2534" xmlns="http://www.w3.org/2000/svg"><path fill="none" d="M0 0h24v24H0V0z"/><path d="M3 18h18v-2H3v2zm0-5h18v-2H3v2zm0-7v2h18V6H3z"/></svg><svg width="44" height="44" viewBox="-10 -10 44 44" id="outline-person_pin_circle-24px" y="2578" xmlns="http://www.w3.org/2000/svg"><path fill="none" d="M0 0h24v24H0V0z"/><path d="M12 1C7.59 1 4 4.59 4 9c0 5.57 6.96 13.34 7.26 13.67l.74.82.74-.82C13.04 22.34 20 14.57 20 9c0-4.41-3.59-8-8-8zm0 19.47C9.82 17.86 6 12.54 6 9c0-3.31 2.69-6 6-6s6 2.69 6 6c0 3.83-4.25 9.36-6 11.47z"/><path d="M12 9c.83 0 1.5-.67 1.5-1.5S12.83 6 12 6s-1.5.68-1.5 1.5c0 .83.67 1.5 1.5 1.5zM12 10c-1 0-3 .5-3 1.5v.12c.73.84 1.8 1.38 3 1.38s2.27-.54 3-1.38v-.12c0-1-2-1.5-3-1.5z"/></svg><svg width="44" height="44" viewBox="-10 -10 44 44" id="outline-search-24px" y="2622" xmlns="http://www.w3.org/2000/svg"><path fill="none" d="M0 0h24v24H0V0z"/><path d="M15.5 14h-.79l-.28-.27A6.471 6.471 0 0 0 16 9.5 6.5 6.5 0 1 0 9.5 16c1.61 0 3.09-.59 4.23-1.57l.27.28v.79l5 4.99L20.49 19l-4.99-5zm-6 0C7.01 14 5 11.99 5 9.5S7.01 5 9.5 5 14 7.01 14 9.5 11.99 14 9.5 14z"/></svg><svg viewBox="-10 -10 532 532" width="532" height="532" id="twitter_icon" y="2666" xmlns="http://www.w3.org/2000/svg"><path d="M459.37 151.716c.325 4.548.325 9.097.325 13.645 0 138.72-105.583 298.558-298.558 298.558-59.452 0-114.68-17.219-161.137-47.106 8.447.974 16.568 1.299 25.34 1.299 49.055 0 94.213-16.568 130.274-44.832-46.132-.975-84.792-31.188-98.112-72.772 6.498.974 12.995 1.624 19.818 1.624 9.421 0 18.843-1.3 27.614-3.573-48.081-9.747-84.143-51.98-84.143-102.985v-1.299c13.969 7.797 30.214 12.67 47.431 13.319-28.264-18.843-46.781-51.005-46.781-87.391 0-19.492 5.197-37.36 14.294-52.954 51.655 63.675 129.3 105.258 216.365 109.807-1.624-7.797-2.599-15.918-2.599-24.04 0-57.828 46.782-104.934 104.934-104.934 30.213 0 57.502 12.67 76.67 33.137 23.715-4.548 46.456-13.32 66.599-25.34-7.798 24.366-24.366 44.833-46.132 57.827 21.117-2.273 41.584-8.122 60.426-16.243-14.292 20.791-32.161 39.308-52.628 54.253z"/></svg></svg>