<?xml version="1.0" encoding="utf-8"?>
<!-- Generator: Adobe Illustrator 22.1.0, SVG Export Plug-In . SVG Version: 6.00 Build 0)  -->
<svg version="1.1" id="Layer_1" xmlns="http://www.w3.org/2000/svg" xmlns:xlink="http://www.w3.org/1999/xlink" x="0px" y="0px"
	 viewBox="0 0 18 20" style="enable-background:new 0 0 18 20;" xml:space="preserve">
<style type="text/css">
	.st0{fill:#00AAFF;}
	.st1{fill:#FFFFFF;}
</style>
<g>
	<path class="st0" d="M9,0C4,0,0,4,0,9c0,4.2,2.8,7.7,6.7,8.7L9,20l2.3-2.3c3.9-1,6.7-4.5,6.7-8.7C18,4,14,0,9,0z"/>
	<path class="st1" d="M7.1,9.9c0,0.3-0.6,0.3-0.9,0.3c-0.3,0-0.6-0.3-0.6-0.6S5.9,9,6.2,9C6.5,9,7.1,9.6,7.1,9.9z M11.8,9
		c-0.3,0-0.9,0.6-0.9,0.9c0,0.3,0.6,0.3,0.9,0.3c0.3,0,0.6-0.3,0.6-0.6C12.4,9.3,12.1,9,11.8,9z M13.7,7.4l-0.1,0.4
		c0,0.1-0.1,0.2-0.2,0.2h-0.5c0.4,0.3,0.6,0.8,0.6,1.3v1c0,0.3-0.1,0.5-0.3,0.7v0.8c0,0.4-0.3,0.7-0.7,0.7h-0.9
		c-0.4,0-0.7-0.3-0.7-0.7v-0.4H7.4v0.4c0,0.4-0.3,0.7-0.7,0.7H5.6c-0.4,0-0.7-0.3-0.7-0.7V11c-0.2-0.2-0.3-0.4-0.3-0.7v-1
		c0-0.5,0.2-1,0.6-1.3H4.6C4.5,8,4.4,7.9,4.4,7.8L4.3,7.4c0-0.1,0.1-0.3,0.2-0.3h0.6c0.1,0,0.2,0.1,0.2,0.2l0.1,0.3L6,6.3
		c0.2-0.5,0.8-0.9,1.3-0.9h3.4c0.6,0,1.1,0.3,1.3,0.9l0.6,1.2l0.1-0.3c0-0.1,0.1-0.2,0.2-0.2h0.6C13.7,7.1,13.8,7.2,13.7,7.4z
		 M6,7.5c0.1,0,0.2,0,0.3,0h5.3c0.1,0,0.2,0,0.3,0l-0.5-1C11.4,6.2,11,6,10.7,6H7.3C7,6,6.6,6.2,6.5,6.6L6,7.5L6,7.5z M6.6,11.4
		c-1.1,0-1.1,0-1.2,0v0.5C5.4,12,5.5,12,5.5,12h0.9c0.1,0,0.1-0.1,0.1-0.1L6.6,11.4L6.6,11.4z M12.5,11.4c-0.1,0-0.1,0-1.2,0v0.4
		c0,0.1,0.1,0.1,0.1,0.1h0.9c0.1,0,0.1-0.1,0.1-0.1L12.5,11.4L12.5,11.4z M11.7,8.1H6.3c-0.7,0-1.2,0.5-1.2,1.2v1
		c0,0.2,0.2,0.4,0.4,0.4h6.8c0.2,0,0.4-0.2,0.4-0.4v-1C12.8,8.6,12.3,8.1,11.7,8.1z M10.4,9.6H7.7c-0.1,0-0.1,0-0.1,0.1
		c0,0.2,0.2,0.4,0.4,0.4h2c0.2,0,0.4-0.2,0.4-0.4C10.5,9.6,10.4,9.6,10.4,9.6z"/>
</g>
</svg>
