<?xml version="1.0" encoding="utf-8"?>
<!-- Generator: Adobe Illustrator 22.1.0, SVG Export Plug-In . SVG Version: 6.00 Build 0)  -->
<svg version="1.1" id="Layer_1" xmlns="http://www.w3.org/2000/svg" xmlns:xlink="http://www.w3.org/1999/xlink" x="0px" y="0px"
	 viewBox="0 0 24 24" style="enable-background:new 0 0 24 24;" xml:space="preserve">
<style type="text/css">
	.st0{fill:none;}
	.st1{fill:#00AAFF;}
	.st2{fill:#FFFFFF;}
</style>
<path class="st0" d="M0,0h24v24H0V0z"/>
<path class="st1" d="M12,2c-5,0-9,4-9,9c0,4.2,2.8,7.7,6.7,8.7L12,22l2.3-2.3c3.9-1,6.7-4.5,6.7-8.7C21,6,17,2,12,2z"/>
<path class="st2" d="M14.4,12.4l1.3-1.2c0.3-0.2,0.2-0.7-0.1-0.8l-1.1-0.5V8.1c0-0.1-0.1-0.2-0.2-0.2h-0.7V7.2
	c0-0.2-0.2-0.4-0.4-0.4h-2.2c-0.2,0-0.4,0.2-0.4,0.4v0.6H9.8C9.7,7.8,9.6,8,9.6,8.1v1.8l-1.1,0.5c-0.3,0.1-0.4,0.6-0.1,0.8l1.3,1.2
	c0,0.5-0.8,1.7-2.2,1.7c-0.1,0-0.2,0.1-0.2,0.2v0.1c0,0.1,0.1,0.2,0.2,0.2c1,0,1.8-0.4,2.3-1.1c0.2,0.6,0.7,1.1,1.4,1.1H13
	c0.7,0,1.2-0.5,1.4-1.1c0.5,0.7,1.3,1.1,2.3,1.1c0.1,0,0.2-0.1,0.2-0.2v-0.1c0-0.1-0.1-0.2-0.2-0.2C15.2,14.1,14.4,12.9,14.4,12.4z
	 M11,7.4H13v0.5H11V7.4z M10.1,8.3h3.8v1.4L12.2,9c-0.1-0.1-0.3-0.1-0.4,0l-1.7,0.7V8.3z M13.9,12.2v1c0,0.5-0.4,1-1,1H11
	c-0.5,0-1-0.4-1-1v-1l-1.4-1.3L12,9.4l3.3,1.4L13.9,12.2z"/>
</svg>
