<?xml version="1.0" encoding="utf-8"?>
<!-- Generator: Adobe Illustrator 22.1.0, SVG Export Plug-In . SVG Version: 6.00 Build 0)  -->
<svg version="1.1" id="Layer_1" xmlns="http://www.w3.org/2000/svg" xmlns:xlink="http://www.w3.org/1999/xlink" x="0px" y="0px"
	 viewBox="0 0 640 512" style="enable-background:new 0 0 640 512;" xml:space="preserve">
<style type="text/css">
	.st0{fill:#7F7F7F;}
</style>
<path class="st0" d="M480,366.1l85.2-78.1c18.1-16.6,12.3-44.4-8.6-53.4L480,201.8V80c0-8.8-7.2-16-16-16h-48V24
	c0-13.3-10.7-24-24-24H248c-13.3,0-24,10.7-24,24v40h-48c-8.8,0-16,7.2-16,16v121.8l-76.1,32.6c-22.5,9.6-26.4,37.8-9.6,53.2
	l85.6,78.5C160,402.2,109,480,12,480c-6.6,0-12,5.4-12,12v8c0,6.6,5.4,12,12,12c65.5,0,117.3-29,150.8-73.1
	C173,480.8,210.9,512,256,512h128c45.1,0,83-31.2,93.2-73.1C510.9,483.3,562.8,512,628,512c6.6,0,12-5.4,12-12v-8
	c0-6.6-5.4-12-12-12C534.4,480,480,405.2,480,366.1z M256,32h128v32H256V32z M192,96h256v92l-115.4-49.5c-8-3.4-17.2-3.4-25.2,0
	L192,188V96z M448,352v64c0,35.3-28.7,64-64,64H256c-35.3,0-64-28.7-64-64v-64l-96-88l224-96l224,96L448,352z"/>
</svg>
