<?xml version="1.0" encoding="utf-8"?>
<!-- Generator: Adobe Illustrator 22.1.0, SVG Export Plug-In . SVG Version: 6.00 Build 0)  -->
<svg version="1.1" id="Layer_1" xmlns="http://www.w3.org/2000/svg" xmlns:xlink="http://www.w3.org/1999/xlink" x="0px" y="0px"
	 viewBox="0 0 512 512" style="enable-background:new 0 0 512 512;" xml:space="preserve">
<style type="text/css">
	.st0{fill:#7F7F7F;}
</style>
<path class="st0" d="M152,304c0,17.7-30.3,16-48,16s-32-14.3-32-32s14.3-32,32-32S152,286.3,152,304z M408,256
	c-17.7,0-48,30.3-48,48s30.3,16,48,16s32-14.3,32-32S425.7,256,408,256z M511.4,167.8l-8,24c-1.6,4.9-6.2,8.2-11.4,8.2h-28.5
	c19.9,17.6,32.5,43.3,32.5,72v56c0,15.3-6.1,29.1-16,39.2V408c0,22.1-17.9,40-40,40h-48c-22.1,0-40-17.9-40-40v-24H160v24
	c0,22.1-17.9,40-40,40H72c-22.1,0-40-17.9-40-40v-40.8c-9.9-10.1-16-23.9-16-39.2v-56c0-28.7,12.6-54.4,32.5-72H20
	c-5.2,0-9.8-3.3-11.4-8.2l-8-24C-2,160,3.8,152,12,152h32c5.2,0,9.8,3.3,11.4,8.2l5.2,15.5l30.6-65.5c13.1-28,41.5-46.2,72.5-46.2
	h184.8c31,0,59.4,18.1,72.5,46.2l30.6,65.5l5.2-15.5c1.6-4.9,6.2-8.2,11.4-8.2h32C508.2,152,514,160,511.4,167.8z M95,177.5
	c5.6-1,11.3-1.5,17-1.5h288c5.8,0,11.5,0.5,17,1.5l-25.1-53.8C384,106.9,367,96,348.4,96H163.6c-18.6,0-35.6,10.9-43.5,27.7
	L95,177.5L95,177.5z M128,384c-60.5,0-58.3,0.2-64-0.6V408c0,4.4,3.6,8,8,8h48c4.4,0,8-3.6,8-8V384z M448,383.4
	c-5.7,0.8-3.6,0.6-64,0.6v24c0,4.4,3.6,8,8,8h48c4.4,0,8-3.6,8-8V383.4z M400,208H112c-35.3,0-64,28.7-64,64v56
	c0,13.2,10.8,24,24,24h368c13.2,0,24-10.8,24-24v-56C464,236.7,435.3,208,400,208z M330,288H182c-3.5,0-6,2.2-6,8
	c0,13.3,10.7,24,24,24h112c13.3,0,24-10.7,24-24C336,290.2,333.5,288,330,288z"/>
</svg>
