<?xml version="1.0" encoding="utf-8"?>
<!-- Generator: Adobe Illustrator 22.1.0, SVG Export Plug-In . SVG Version: 6.00 Build 0)  -->
<svg version="1.1" xmlns="http://www.w3.org/2000/svg" xmlns:xlink="http://www.w3.org/1999/xlink" x="0px" y="0px"
	 viewBox="0 0 319.1 113.4" style="enable-background:new 0 0 319.1 113.4;" xml:space="preserve">
<style type="text/css">
	.st0{fill:none;}
	.st1{fill-rule:evenodd;clip-rule:evenodd;fill:#00AEEF;}
	.st2{fill:#00AEEF;}
</style>
<g id="info">
	<rect x="-261.4" y="-127.6" class="st0" width="841.9" height="595.3"/>
</g>
<g id="logo">
	<g>
		<g>
			<g>
				<g>
					<g>
						<g>
							<path class="st1" d="M319.1,45.8C276.4,17.3,220.6,0,159.6,0C98.5,0,42.8,17.3,0,45.8c42.5-14.1,92.3-22.9,159.6-22.9
								C226.9,22.9,276.6,31.7,319.1,45.8z"/>
						</g>
					</g>
					<g>
						<g>
							<path class="st2" d="M135.1,60.7c-3.1,0-4.7,2.5-5.2,5.7c-0.5,3.4-2.3,15.3-2.7,18.4c-0.2,1.8-0.4,3.7-2.1,4.5
								c-1.8,0.8-3.9-0.4-5.7-2c-1.8-1.6-28.8-24.6-28.8-24.6c-1.5-1.4-3.5-2-5.4-2c-4.1,0-8,2.5-8,8.7v38.4c0,3,2.1,4.9,4.6,4.9
								c2.8,0,4.6-1.8,5-4.5c0,0,3-18.3,3.3-20.3c0.4-2.4,0.8-4.2,3.1-4.9c2.1-0.6,4,0.6,6.9,3.1c2.9,2.5,27.2,24.5,27.2,24.5
								c1.9,1.6,3.2,2.2,5.9,2.2c2.4,0,6.7-1,6.7-8.3V66.1C140,62.6,137.8,60.7,135.1,60.7z"/>
							<path class="st2" d="M309.1,101.5c-21.2,4.6-45.5-0.3-45.5-15.3c0-11.3,10.5-15.9,18.8-16.6c8.7-0.7,15.5,1.1,19,4.8
								c2.2,2.3,1.6,5.4-2.7,5.6c-3.9,0.2-11.4,0.5-17.5,0.7c-3.5,0.1-5.4,2-5.4,4.5c0,2,1.5,4.3,5.5,4.3c5.8,0,20.4,0.1,27.7,0.1
								c4.8,0,7.2-2.7,7.2-8.2c0-8.8-7.9-22-31.1-22c-21,0-36.2,10.5-36.2,27.6c0,24.3,35.7,31.7,61.9,22.7c2.5-0.9,4.7-2.6,4-5.4
								C314.1,101.8,312.1,100.9,309.1,101.5z"/>
							<path class="st2" d="M63.2,101.5c-21.2,4.6-45.5-0.3-45.5-15.3c0-11.3,10.5-15.9,18.8-16.6c8.7-0.7,15.5,1.1,19,4.8
								c2.2,2.3,1.6,5.4-2.7,5.6c-4,0.2-11.4,0.5-17.5,0.7c-3.5,0.1-5.4,2-5.4,4.5c0,2,1.5,4.3,5.5,4.3c5.8,0,20.4,0.1,27.7,0.1
								c4.8,0,7.2-2.7,7.2-8.2c0-8.8-7.9-22-31.1-22c-21,0-36.2,10.5-36.2,27.6c0,24.3,35.7,31.7,61.9,22.7c2.5-0.9,4.7-2.6,4-5.4
								C68.2,101.8,66.2,100.9,63.2,101.5z"/>
							<g>
								<path class="st2" d="M227.4,78.2c0.5,13.2,1.7,24.2,2.1,28.1c0.5,5,3,6.4,5.6,6.4c2.5,0,5.1-1.3,5.5-6.3
									c0.4-4.2,1.6-17.3,2.3-30.3c0-0.7-0.4-1-1-0.9l-13.8,2.2C227.7,77.5,227.4,77.8,227.4,78.2z"/>
								<path class="st2" d="M235.1,59.4c-6.3,0-8.2,5-8.1,8c0,0.6,0.1,2.1,0.2,4.1c0,0.4,0.4,0.9,0.9,0.8l14.4-2.3
									c0.5-0.1,0.7-0.4,0.7-0.8c0-0.7,0.1-1.4,0.1-1.7C243.3,64.5,241.4,59.4,235.1,59.4z"/>
							</g>
							<path class="st2" d="M213.9,80.5c-4.8,0-19.6,0.1-29.1,0.1c-4.6,0-5.7,2.5-5.7,4.5c0,1.8,1.2,4.1,5.5,4.3
								c6.5,0.3,14.9,0.7,18.7,0.9c5.2,0.3,5.2,2.9,3.5,5.2c-3.5,4.6-12,7.6-20.9,7.6c-11.6,0-24.3-6.6-24.3-17
								c0-9.8,10.9-20.6,43.3-16c2.8,0.4,5.7-0.1,6.3-2.7c0.7-2.8-1.1-4.6-4.8-5.6c-7.3-1.9-14-2.4-20.4-2.4
								c-21.8,0-39.3,10.4-39.3,27.2c0,18,17.4,26.7,39.1,26.7c24.3,0,36.1-13.2,36.1-24.7C221.9,82.8,218.9,80.5,213.9,80.5z"/>
						</g>
					</g>
				</g>
			</g>
		</g>
	</g>
</g>
</svg>
