<?xml version="1.0" encoding="utf-8"?>
<!-- Generator: Adobe Illustrator 22.1.0, SVG Export Plug-In . SVG Version: 6.00 Build 0)  -->
<svg version="1.1" xmlns="http://www.w3.org/2000/svg" xmlns:xlink="http://www.w3.org/1999/xlink" x="0px" y="0px"
	 viewBox="0 0 1183.3 231.2" style="enable-background:new 0 0 1183.3 231.2;" xml:space="preserve">
<style type="text/css">
	.st0{fill:#FCAF17;}
	.st1{fill-rule:evenodd;clip-rule:evenodd;fill:#FCAF17;}
	.st2{fill-rule:evenodd;clip-rule:evenodd;fill:#0099DA;}
	.st3{fill:#ED1B2F;}
	.st4{fill:#0099DA;}
	.st5{fill-rule:evenodd;clip-rule:evenodd;fill:#002157;}
</style>
<g id="Guides">
</g>
<g id="Foreground">
	<path class="st0" d="M173.3,35.3c0,0-9.7-8.4-10.5-13.1c-0.9-5.4,4.3-14.5,9.9-22.1c8.5,6.3,17.1,15.2,18.1,20.6
		c0.8,4.7-6,14.6-6,14.6h23.2c-0.1-0.1-9.3-9.2-9.3-13.9c0-5.4,7.4-14.2,15-21.4c7.5,7.2,15,16,15,21.4c0,4.7-9.2,13.8-9.3,13.9
		h23.2c0,0-6.8-9.8-6-14.6c0.9-5.4,9.6-14.3,18.1-20.6c5.5,7.6,10.8,16.7,9.9,22.1c-0.8,4.7-10.5,13.1-10.5,13.1h22
		c-1.4-3.1-5.9-9.5-3.1-15.9c3.4-7.8,19.8-20.6,25.5-19.3c-9.5,13.3-13.7,23.8-17.6,35.1c2.3,3.8,2.1,10.6,0,14.2H146.5
		c-2.1-3.7-2.3-10.4,0-14.2c-3.9-11.3-8.1-21.8-17.6-35.1c5.7-1.4,22.1,11.5,25.5,19.3c2.8,6.4-1.7,12.8-3.1,15.9H173.3z"/>
	<polygon class="st1" points="0,230 72.4,230 72.4,139.7 120.6,230 213.6,230 213.6,59.3 128.9,59.3 128.9,152.3 79.4,59.3 0,59.3 	
		"/>
	<polygon class="st2" points="213.6,230 298.3,230 298.3,174.9 347.8,174.9 347.8,230 422.3,230 422.3,59.3 347.8,59.3 347.8,115.1 
		298.3,115.1 298.3,59.3 213.6,59.3 	"/>
	<path class="st3" d="M185.9,206.8l-0.4-0.3c-2.3,1.5-4.2,1.4-6.5-0.6c0.5-7,4.3-7.4,10.1-6.2c1,0.2,2,0.6,3,0.6
		c1.9,0.1,3.1-1.4,2.7-3.9c-0.6-3.7-0.8-6-0.9-8.2c-4.7,1-10.1-1.1-14.3,2.2l-0.4,0.3c-6-8.8-6.7-25.1,2.4-32.8
		c-0.6-1.6-2.6-3.7-5-6.2c-2.3-2.3-4.7-4.8-6.4-7.6c1.1-6.3,8.9-11.2,16.5-16.8c-2.4,7.3-1.2,12,2.5,18.9c1.5,2.7,3.1,5.2,4.3,7.4
		c1.2,2.1,1.6,4.2,1.5,6c1.1,1.8,4.1,5.8,6.5,5.8c1.7,0,2.6-1.3,2.6-3c0-9.7-14.3-16.3-14.3-28.6c0-8.7,5.4-12.7,10.5-12.7
		c4.9,0,6.8,3.7,5.8,6.9c3.5,1.5,2.6,5.2,1.8,8.4c-1.2,4.8-1.1,7.6,1.3,13.6c-2-0.2-6.5-6.4-8.7-11.3c-2-4.7-2.8-10.3,2-10.7
		c0.4-1.5-1-2.8-2.4-2.8c-3.6,0-5.9,3.2-5.9,8.4c0,10.5,15,17,15,28.9c0,5.5-4.1,8.6-7.8,8.6c-2.9,0-5.2-1.6-6.9-3.7
		c-0.5,7.8,5.2,10.3,12.3,9.6c-1.6,6.8-1.2,17.8,0.8,24.6c-2.6,0.7-5.8,3.2-6.4,6c1.4,2.3,1.9,5,0.1,7.5c-3.3,0.8-6.1-2.8-7.4-5.9
		l-0.7-0.2c-2.1,2.4-4.5,6.3-7.9,5.5C184.7,213.9,183.5,208.8,185.9,206.8z"/>
	<path class="st2" d="M174.9,208.9c-0.4-1.1,2.2-6.1,5-6.1c1.7,0,2.2,4,1.4,4.5C181,207.6,177.8,207.1,174.9,208.9z"/>
	<path class="st2" d="M185.4,219.6c-1.2-0.5-3-6.6-0.9-8.9c1.4-1.5,4.8,2.7,3.9,3.3C186.2,215.5,185.7,219.3,185.4,219.6z"/>
	<path class="st2" d="M200.5,221.1c1-0.1,3.6-4.1,1.7-7.9c-0.7-1.4-5.7,0-4.8,1.1C198.8,215.9,200.9,218.5,200.5,221.1z"/>
	<path class="st3" d="M156.9,117.4c-1.6-5.1-2.6-12-7.4-13.4c2.5-3-0.2-7.4-0.7-7.1c-2.5,1.7-5.8,2.7-8,0.4
		c-0.5-3.5,2.4-5.4,5.2-6.3l0-0.4c-2.6-1.5-4.6-4.8-3.7-8c2.3-1.5,5.1-0.8,6.8,0.8l0.3-0.3c-1.2-2.5-3-6.5-0.7-8.4
		c1.8-1.3,9.1-1.3,6.8,7.1c-1,3.7-1,6,0.9,8.9c1.4,2.1,7.8,10.5,10.6,13.3c-0.4,0.2-0.8,0.5-1.1,0.8
		C161.6,107.6,157.7,111.5,156.9,117.4z"/>
	<path class="st2" d="M144.2,71.8c3.1-0.7,7.9,1.4,7.6,3.5c-0.2,1.8-4.3,2.1-4.3,1.6C147.1,75.1,144.5,73.7,144.2,71.8z"/>
	<path class="st2" d="M137.1,83.7c1.1-1.5,6.2-3.5,8.1-1.1c1.3,1.7-2.3,5.1-2.6,4.4C141.4,84.6,138.6,85,137.1,83.7z"/>
	<path class="st2" d="M136.8,95.7c-0.4,0.4-0.3,4.3,6.2,2.9c1.4-0.3,0.1-5.4-1.5-4.7C141,94.2,138.5,96.9,136.8,95.7z"/>
	<path class="st4" d="M184.3,94.8c-1.6-1.6-4-2-6.3-2c-3.6,0-6.3,1.8-9.5,2c-3,0.1-5-1.1-6-2.9c-1.2-2.2-0.5-5.9,2.1-6.7
		c-0.7,2.6,0.2,6.4,5.1,6.4c2.9,0,4.8-0.8,8.1-0.8c3.2,0,5.9,1.4,7.1,2.9L184.3,94.8z"/>
	<path class="st3" d="M174.7,95.5l0.2-0.5c6.5,3.4,11.3,0.1,9.3-6.5c-2.9-2.2-7.9-0.2-9.9,0.6c-1.3-2.2-2.2-5.6-2.3-8.2
		c3.5-5,23.3-11,27.7-12.6c0.4,1.6-0.4,4.4-1.1,6c2.3-0.9,5.3-1.4,7.5-0.8c0.2,3.4-0.4,6.6-3.1,10.2c1.8,1.5,3.4,5.5,3.4,10.3
		c0,7.1-3.3,12.3-5.1,18.8c-0.6,2.2-0.8,3.7-0.6,5.9c-2.4-1.3-3.8-3.6-4.7-6c-1.5,3.7-5.8,7.9-10.4,11.3
		c-8.4,6.2-18.5,12.6-18.2,19.8c-2-1.8-3.3-4.4-4.1-6.7c-5.3,4.1-5.2,3.2-7.1,10.5c-0.5-1-2-3-3.5-2.9c-1.1,2.3-3,4.7-6,4.2
		c-2.4-2.7-0.9-7.1,1.2-8.7l-0.2-0.4c-2.6,0.4-6.9-0.9-7.8-3.9c0.4-2.7,4.1-3.6,6.1-3.5v-0.5c-2.6-0.9-5.2-4.2-5.9-6.4
		c2.9-5.9,7.5-3.5,10,0.8c1.6,2.8,2.3,3.3,4.2,3c1.7-0.2,3.5-2.3,5.2-3.9c-1.7-9.4,3.3-15.2,8.8-19c5.1-3.5,14.8-5.5,14.5-7.2
		c-2.8,0.4-6.1,0.2-7.5-0.8C173.8,97.7,174,96.8,174.7,95.5z"/>
	<path class="st1" d="M188,76.5c-2.6,0.9-5.7,2-8.2,3.3c2.2,1,4.5,1.7,5.7,1.4C187,80.9,187.2,78.2,188,76.5z"/>
	<path class="st2" d="M135.6,125.7c0.7-1.3,5.9-4.1,7.9-1.9c1.4,1.5-1.6,5.1-2,4.4C140.1,125.9,137.2,126.4,135.6,125.7z"/>
	<path class="st2" d="M141.6,148.7c-0.2,0.8,2.6,3.8,7.3,0.2c1.4-1.1-2-5.2-3.2-3.8C145,145.9,144.4,148.3,141.6,148.7z"/>
	<path class="st2" d="M136,140.3c0-1.7,3.7-7,6.2-6.1c2,0.7,1.5,5.3,0.5,4.8C140.2,137.8,137.5,140.4,136,140.3z"/>
	<path class="st3" d="M152.7,160.5c4.5-7.6,13.9-9.5,23.1-5.8c1.1,1.2,1.8,2.2,2.2,3.1c-6.9,5.8-8.1,16.5-5.8,25.2
		c-3.9,2.7-7.5,4.9-10.3,9.1c-2.2-2.1-3.7-0.9-5-0.1c0,2.8-1.5,7.3-4.9,6.9c-3.1-2.2-2.7-7.5-1.6-10l-0.4-0.5
		c-2.8,1.1-6.8,0.8-8.8-1.8c0.7-2.9,3.3-4.7,5.4-5.1l0-0.4c-2.6-0.6-3.3-3.3-4-5.4c1.2-1.3,2.6-2,4.6-2c3.6,0,5.3,2.1,6.6,4.2
		c0.5,0.8,1.5,3.7,2.7,3.7c3.3,0,4.8-3.2,5.6-4.9C157.8,173.2,152.8,165.9,152.7,160.5z"/>
	<path class="st2" d="M137.8,176.1c0.2-1,5.5-3.1,7.7-1.4c1.3,1.1-0.4,4-1.7,4.1C143.3,178.9,140.4,176.4,137.8,176.1z"/>
	<path class="st2" d="M138,191.1c-0.6-1,1.5-6.9,4.5-7c2.1-0.1,2.5,4.5,1.6,4.5C141.4,188.5,138.8,190.9,138,191.1z"/>
	<path class="st2" d="M147.3,202.1c0.5,0.4,7,0,7.3-4.5c0.1-2.3-4.7-3.8-4.6-1.8C150,197.9,149.3,200.5,147.3,202.1z"/>
	<g>
		<polygon class="st0" points="223.6,68.4 241.8,68.4 241.8,75.1 223.6,75.1 223.6,68.4 		"/>
		<path class="st0" d="M232.7,71.7"/>
	</g>
	<g>
		<polygon class="st0" points="263.9,68.4 282.1,68.4 282.1,75.1 263.9,75.1 263.9,68.4 		"/>
		<path class="st0" d="M273,71.7"/>
	</g>
	<g>
		<polygon class="st0" points="223.6,141.1 241.8,141.1 241.8,147.8 223.6,147.8 223.6,141.1 		"/>
		<path class="st0" d="M232.7,144.5"/>
	</g>
	<g>
		<polygon class="st0" points="263.9,141.1 282.1,141.1 282.1,147.8 263.9,147.8 263.9,141.1 		"/>
		<path class="st0" d="M273,144.5"/>
	</g>
	<g>
		<polygon class="st0" points="221,214.5 239.3,214.5 239.3,221.1 221,221.1 221,214.5 		"/>
		<path class="st0" d="M230.2,217.8"/>
	</g>
	<path class="st0" d="M229,107.8c-1.1-1.2-1.2-2.2-1.6-3.9c-0.4-1.7-0.9-3.9-3.1-6.7c-2.1,1-3.4,0.9-5.3,0.1c1.8-1.7,3-3.3,3.4-4.2
		c-1.5-0.5-3.3-1.4-4.4-2.2c1.1-1.7,2.8-2.4,4.7-2.9c-1.3-1.4-2.3-3.1-3.1-4.6c5.4-2.1,7.9,1.1,8.2,6.6c0.1,1.1,0.9,2,1.5,2.9
		c0.6,0.8,1.8,2,2.7,3.1l-0.3,2.3C231.5,101.5,230.9,105.4,229,107.8z"/>
	<path class="st0" d="M233.2,114.9c-3.4,1.6-6.5,1.1-7.8-1.5c7.1-1.2,8.7-7.8,9.4-13.8c0.4-3.6,0.8-6.8,1.1-9.7
		c0.2-2.4,0.5-4.6,1-5.9c-1.5-1.7-1-4.7-1.1-6.4c2.1,0.1,4.5,1.1,6,2.6c1.8-0.5,4.7-0.6,6.8,0c1.7-1.9,4.7-2.5,7-2.2
		c-1.2,1.8-1,4.1-2.1,5.5c1.6,3.7,1.8,12.5,2.3,16.8c-0.8,6.8-6.8,12.6-11.7,16.3c0,1,0.4,2,0.3,3.1c-1.6,2.5-3.2,3.4-5.4,5.1
		c-1.8,1.4-4,3.3-6,7.4c1.1,3-0.2,5-3.1,6.2c-0.2-1.4-0.4-3.8-1.8-4.6c-1.1,1.4-2.8,2.7-4.7,2.8c-0.7-1.6-0.6-3.5,0-5
		c-1.6,0.4-3.3,0.7-4.9-0.1c0.9-5.6,4.3-5.5,8.5-5.6c0.4,0,1.4,0,1.7-0.3C230.6,123.8,233.2,114.9,233.2,114.9z"/>
	<path class="st0" d="M265.3,130.3c-2.4,2-4.9,3.1-7.7,4.3c-0.2,1.4-0.8,2.9-2.1,3.4c-0.7-1-1.8-3.1-2.7-3.8
		c-0.4,2.1-1.8,3.9-3.3,5.2c-1.6-0.9-2.1-3.2-2-4.8c-1.3,1-2.9,1.8-4.3,2.3c-1.3-6.9,5.1-9.1,10.1-7.7c1.3-0.6,2.6-1.3,3.6-1.9
		c-1.2-1.4-2.3-3.8-1.8-5.6c2.7-0.8,6.8-5.3,9.9-6c0.2,1.9,1.3,4.2,2.4,5.9C264.1,123.5,264.3,127.9,265.3,130.3z"/>
	<path class="st2" d="M251,84.4c0.4,1.1-3.2,3.5-3.9,4c-0.2-1.2-0.3-2.7-0.1-2.9C247.3,85.1,250.1,84.6,251,84.4z"/>
	<path class="st4" d="M243.2,97c-1.9-0.6-1.9-2.6-1.9-4c0.8-0.2,1.9,0.3,2.9,0.3c-0.1-1.4-1-2.1-1.9-2.7c0.1-0.3,0.2-0.7,0.3-0.9
		c1.9,0.3,2.7,0.3,4.6,0.2c0.1,0.3,0.2,0.7,0.3,0.9c-0.9,0.6-2.2,1.1-2.3,2.5c1.2,0.1,2.4-0.3,3.1,0c-0.1,1.5-0.1,3.3-2.1,3.9
		c0.7,3.3-0.8,5.8-1.7,6.2C243.5,102.7,242.4,100.2,243.2,97z"/>
	<path class="st0" d="M233.5,188.5c-3.4,1.6-6.7,0.9-8.1-1.8c10.9-1.8,8.6-16.3,10.7-24.5c0.6-2.3,1.2-4.4,1.9-5.7
		c-1.2-1.7-0.2-5.3-0.1-6.5c2,0.4,4.3,1.8,5.6,3.6c1.8-0.2,4.7,0.2,6.7,1.1c2-1.6,5.1-1.9,7.3-1.2c-1.4,1.6-1.9,4.3-3,5.2
		c1.2,4.3,0.7,10.4,1.2,15c-0.8,6.8-6.8,12.6-11.7,16.3c0,1,0.4,2,0.3,3.1c-1.6,2.5-3.2,3.4-5.4,5.1c-1.8,1.4-3.9,3.3-5.9,7.2
		c0.9,3.2-0.2,5.2-3.2,6.4c-0.2-1.4-0.4-3.8-1.7-4.6c-1.3,1.4-2.8,2.7-4.8,2.8c-0.7-1.6-0.6-3.5,0.1-5c-1.7,0.4-3.3,0.7-4.9-0.1
		c0.9-5.6,4.3-5.5,8.5-5.6c0.4,0,1.4,0,1.7-0.3C230.6,197.2,233.5,188.5,233.5,188.5z"/>
	<path class="st0" d="M262.6,203.9c-2.3,1.8-3.2,2.5-5.8,4c-0.1,1.4-0.6,3.4-2.1,3.9c-0.6-1.2-1.9-3.5-2.9-4.3
		c-0.5,2.1-1.8,3.9-3.3,5.2c-1.6-0.9-2-3-2.1-4.8c-1.3,0.9-2.8,1.8-4.3,2.3c-1.5-6.1,4.8-8.6,9.9-7.3c1.1-0.3,2-1,3-1.7
		c-1.5-1.9-2.1-4.1-1.5-6.4c3.5-1.4,6.9-5.4,10.4-5.6c-0.3,1.9-0.3,4.6,0.2,5.9C262.6,196.5,260.8,201,262.6,203.9z"/>
	<path class="st0" d="M228.9,181c-1-1.1-1.1-2.1-1.5-3.8c-0.4-1.7-0.9-3.9-3.1-6.7c-2.1,1-3.4,0.9-5.3,0.1c0.8-0.9,2.9-3.3,3.4-4.3
		c-1.5-0.4-3-1.2-4.4-2.1c1.1-1.7,2.9-2.4,4.9-2.9c-1.1-1.3-2.5-3-3.4-4.5c5-2.5,8.1,1.3,8.5,6.8c0.1,0.8,0.5,1.4,0.9,2l0.5,0.6
		c0.6,0.8,1.7,1.9,2.7,3C231.6,173.4,231,178.2,228.9,181z"/>
	<path class="st2" d="M239.2,84.5c-0.4,1.1,3.1,3.4,3.8,4c0.2-1.2,0.3-2.7,0.1-2.9C242.8,85.1,240.1,84.7,239.2,84.5z"/>
	<path class="st0" d="M267.4,185.5c-6.7,0.5-13.3,8-20.1,5.7c4.8-3.6,10.5-9.3,11.2-15.8c2.5,0.7,3.7,0.2,6.5-0.2
		c3-0.5,6.7-1,10.2,1.5c3.9,0.6,7.2-1.6,7.2-3.9c0-2.5-1.7-3.1-3.7-3.1c-4.4,0-8.1,2.2-12.6,2.2c-4.4,0-8-3-8-9
		c0-6.3,5.6-9.4,10.7-7.9c1.9-4,6.3,0.1,11.8,0.1c2.6,0,4.7-0.8,7.1-3c0.7,2.5-2.1,5.7-6.6,7.7c-5.9,2.6-13.6,3.2-13.3-1.2
		c-2.7-1.1-5.7,1.1-5.7,4.2c0,2.5,1.6,4.6,4,4.6c4.2,0,8-2,12.9-2c3.5,0,7.9,1.6,7.9,7.3c0,6.3-6.3,8.5-9.5,8.6
		c0.4,4.8,2.2,6.1,6.4,6.5c0.2,4.4-1.5,9.4-3.2,13.4c0.9,1.6,1.2,2.8,1,5.1c-1.4-0.3-2.9-0.9-4-1.7c-0.6,2-2.1,4.3-4.1,5.4
		c-1.4-0.4-1.9-1.9-2.4-3.2c-1.1,1-3.1,2.2-4.7,2c-1.7-5.1,2.2-8.4,6.7-8.6c0.8-1.5,2.1-4,1.8-5.8c-2.5,0.7-4.1,1.8-5.9,3.8
		c-1.7-1.7-2.1-4.5-2.1-6.9C267,189.3,267.2,187.3,267.4,185.5z"/>
	<path class="st2" d="M251.8,159.5c0.3,1.2-3.7,2.9-4.5,3.3c0-1.2,0.1-2.7,0.3-2.9C248,159.6,250.9,159.6,251.8,159.5z"/>
	<path class="st4" d="M242.1,170.8c-1.8-0.9-1.5-2.7-1.3-4.2c0.9-0.1,1.8,0.7,2.9,0.8c0.2-1.3-0.8-2.3-1.5-3.1
		c0.2-0.3,0.3-0.6,0.5-0.9c1.8,0.6,2.6,0.7,4.5,0.9c0.1,0.3,0.1,0.7,0.1,1c-1,0.4-2.3,0.8-2.7,2.2c1.3,0.3,2.4,0.1,3.1,0.5
		c-0.3,1.5-0.7,3.4-2.7,3.4c-1.2,2.8,0.1,4.6-0.6,6C242.4,176.4,240.7,173.9,242.1,170.8z"/>
	<path class="st2" d="M240.1,157.7c-0.6,1,2.5,3.9,3.1,4.5c0.4-1.2,0.7-2.6,0.6-2.9C243.6,158.9,240.9,158,240.1,157.7z"/>
	<path class="st0" d="M267.4,112.1c-6.6,0.4-13.3,7.9-20,5.7c4.8-3.7,10.3-9.3,11-15.7l0-0.2c2.5,0.8,3.7,0.2,6.6-0.2
		c3-0.5,6.4-0.9,10.1,1.3c3.9,0.6,7.2-1.6,7.2-3.9c0-2.5-1.7-3.1-3.8-3.1c-4.4,0-8.1,2.2-12.6,2.2c-4.4,0-8-3-8-9
		c0-6.3,5.6-9.4,10.7-7.9c1.9-4,6.4,0,11.9,0c2.6,0,4.7-0.8,7.1-3c0.7,2.5-2.1,5.7-6.6,7.7c-5.9,2.6-13.7,3.3-13.3-1.1
		c-2.7-1.1-5.7,1.1-5.7,4.2c0,2.5,1.6,4.6,4,4.6c4.2,0,8-2,12.9-2c3.5,0,7.9,1.6,7.9,7.3c0,5.8-5.4,8.1-8.8,8.5
		c-0.2,0.1-0.5,0.1-0.8,0.1c0.7,5,7.2,5.9,11,6.3c0.2,4.6-1.9,9.7-3.7,13.8c0.9,1.7,1,3.1,0.9,5.1c-1.4-0.3-2.7-0.9-3.9-1.7
		c-0.6,2.1-2.2,4.5-4.1,5.4c-1.4-0.4-2-2-2.4-3.2c-1.4,1.1-2.9,2.3-4.7,2c-1.7-5.1,2.4-8.6,6.7-8.6c0.6-1.1,2.8-4.6,2.4-6
		c-1.9,0.2-4.2,1.2-6,3.4l-0.5,0.7C270.3,122,267.4,116.3,267.4,112.1z"/>
	<g>
		<g>
			<polygon class="st5" points="473,230 483.7,230 483.7,179.6 483.3,171.7 516.2,230 531.2,230 531.2,159.3 520.3,159.3 520.3,210 
				520.7,218.6 487.1,159.3 473,159.3 			"/>
			<path class="st5" d="M572.8,231.2c15,0,26.1-9.5,26.1-28.5c0-18.1-8.2-28.7-25.4-28.7c-15.3,0-26.1,10.6-26.1,29.3
				C547.4,220.9,556.8,231.2,572.8,231.2z M573.4,222.7c-11.7,0-15.4-9.1-15.4-19.9c0-9.9,3.2-20.4,15.2-20.4
				c12.2,0,15.1,10.6,15.1,20.3C588.3,213.1,585.3,222.7,573.4,222.7z"/>
			<path class="st5" d="M635.3,231.2c15,0,26.1-9.5,26.1-28.5c0-18.1-8.2-28.7-25.4-28.7c-15.3,0-26.1,10.6-26.1,29.3
				C609.9,220.9,619.3,231.2,635.3,231.2z M635.9,222.7c-11.7,0-15.4-9.1-15.4-19.9c0-9.9,3.2-20.4,15.2-20.4
				c12.2,0,15.1,10.6,15.1,20.3C650.8,213.1,647.8,222.7,635.9,222.7z"/>
			<path class="st5" d="M676,230h10.4v-39.2c2.5-3.6,7.5-7.6,13.6-7.6c3.1,0,4.6,0.2,6.7,0.7l1.6-8.8c-1.3-0.4-3.5-0.9-6.7-0.9
				c-7.3,0-12.6,4.6-15.2,8.5v-7.3H676V230z"/>
			<path class="st5" d="M737.3,230.9c6.2,0,10.5-3.1,13.4-5.8v4.9h10.4v-75.4h-10.4v20.6c-3.2-0.9-5.3-1.2-9.8-1.2
				c-14.8,0-27,9.6-27,28.6C713.9,226.6,727.1,230.9,737.3,230.9z M738.7,222.2c-8.2,0-14.3-5.4-14.3-19.3
				c0-10.9,4.6-20.5,16.6-20.5c4.7,0,7.4,0.8,9.7,1.5v33.4C748.4,218.8,743.3,222.2,738.7,222.2z"/>
			<rect x="774" y="197" class="st5" width="29.8" height="8.7"/>
			<polygon class="st5" points="818.4,230 829.1,230 829.1,198.8 865.4,198.8 865.4,230 876.1,230 876.1,159.3 865.4,159.3 
				865.4,190.2 829.1,190.2 829.1,159.3 818.4,159.3 			"/>
			<path class="st5" d="M917.7,231.2c15,0,26.1-9.5,26.1-28.5c0-18.1-8.2-28.7-25.4-28.7c-15.3,0-26.1,10.6-26.1,29.3
				C892.3,220.9,901.7,231.2,917.7,231.2z M918.3,222.7c-11.7,0-15.4-9.1-15.4-19.9c0-9.9,3.2-20.4,15.2-20.4
				c12.2,0,15.1,10.6,15.1,20.3C933.2,213.1,930.2,222.7,918.3,222.7z"/>
			<rect x="958.4" y="154.6" class="st5" width="10.4" height="75.4"/>
			<rect x="987.1" y="154.6" class="st5" width="10.4" height="75.4"/>
			<path class="st5" d="M1027.8,230.8c9.4,0,15-4.7,18-6.8c0.9,4.8,6.6,6.6,11.7,6.6c0.8,0,1.5,0,2.2-0.1l0.5-8.1
				c-2.6-0.2-5-0.9-5-4.3v-28.6c0-11.2-7.2-15.4-20.7-15.4c-8.3,0-15.3,2.1-18.8,3.6l2.1,7.9c3.2-0.8,9.2-2.5,14.4-2.5
				c8.8,0,12.8,1.6,12.8,9.2v6.1l-12,0.2c-9.5,0.1-21.7,3-21.7,16.5C1011.3,225.4,1017.4,230.8,1027.8,230.8z M1030.3,222.5
				c-5.2,0-8.8-2.1-8.8-8.3c0-5,4.3-8.4,11.8-8.6l11.7-0.5v12.6C1042.9,218.6,1036.1,222.5,1030.3,222.5z"/>
			<path class="st5" d="M1075.5,230h10.4v-41.2c3.9-2.3,9.7-5.7,15.6-5.7c8.8,0,10.2,4.6,10.2,13.5V230h10.3v-34.9
				c0-10.3-1-21.1-17.4-21.1c-7.8,0-14.1,4.2-18.7,7.4v-6h-10.4V230z"/>
			<path class="st5" d="M1159.5,230.9c6.2,0,10.5-3.1,13.4-5.8v4.9h10.4v-75.4h-10.4v20.6c-3.2-0.9-5.3-1.2-9.8-1.2
				c-14.8,0-27,9.6-27,28.6C1136.1,226.6,1149.3,230.9,1159.5,230.9z M1160.9,222.2c-8.2,0-14.3-5.4-14.3-19.3
				c0-10.9,4.6-20.5,16.6-20.5c4.7,0,7.4,0.8,9.7,1.5v33.4C1170.6,218.8,1165.5,222.2,1160.9,222.2z"/>
		</g>
		<g>
			<path class="st5" d="M473,130h10.8V67.9h11.3c10.6,0,15.2,5.1,15.2,14.8c0,9.9-6.6,14.7-17.6,14.7h-4.4v8.7h3.8
				c19.9,0,29.4-10.8,29.4-23.8c0-14.8-9.6-23-24.2-23H473V130z"/>
			<path class="st5" d="M533,130h10.4V90.8c2.5-3.6,7.5-7.6,13.6-7.6c3.1,0,4.6,0.2,6.7,0.7l1.6-8.8c-1.3-0.4-3.5-0.9-6.7-0.9
				c-7.3,0-12.6,4.6-15.2,8.5v-7.3H533V130z"/>
			<path class="st5" d="M596.3,131.2c15,0,26.1-9.5,26.1-28.5c0-18.1-8.2-28.7-25.4-28.7c-15.3,0-26.1,10.6-26.1,29.3
				C570.9,120.9,580.3,131.2,596.3,131.2z M596.9,122.7c-11.7,0-15.4-9.1-15.4-19.9c0-9.9,3.2-20.4,15.2-20.4
				c12.2,0,15.1,10.6,15.1,20.3C611.8,113.1,608.8,122.7,596.9,122.7z"/>
			<polygon class="st5" points="648.2,130 661.9,130 681.9,75.4 671.1,75.4 659,110.4 655.3,122 652,110.6 641.2,75.4 629.9,75.4 
							"/>
			<path class="st5" d="M693.1,130h10.5V75.4h-10.5V130z M698.2,66.4l8-8l-8-7.9l-7.8,7.9L698.2,66.4z"/>
			<path class="st5" d="M721.8,130h10.4V88.8c3.9-2.3,9.7-5.7,15.6-5.7c8.8,0,10.2,4.6,10.2,13.5V130h10.3V95.1
				c0-10.3-1-21.1-17.4-21.1c-7.8,0-14.1,4.2-18.7,7.4v-6h-10.4V130z"/>
			<path class="st5" d="M811.4,131c5.7,0,10.1-1.1,13.2-1.9l-1.6-8.2c-2.8,0.4-6.3,1.4-10.8,1.4c-15,0-19.1-6.3-19.1-19.9
				c0-13.3,6.9-19.7,16.2-19.7c6,0,9.3,1.2,12.6,2.6l3-8c-3.3-1.7-8-3.3-15.6-3.3c-16.5,0-26.9,11-26.9,28.5
				C782.4,122.6,790.9,131,811.4,131z"/>
			<path class="st5" d="M837.9,130h10.5V75.4h-10.5V130z M843,66.4l8-8l-8-7.9l-7.8,7.9L843,66.4z"/>
			<path class="st5" d="M889.9,131.2c8.3,0,15.2-1.6,18.2-2.6l-1.7-8.3c-3.4,0.8-10.2,2.2-14.1,2.2c-10.6,0-18.6-2.4-18.8-17.3h35.9
				v-3.7c0-17.7-6.3-27.5-20.9-27.5C874,74,863,81.5,863,103.6C863,124.8,873.5,131.2,889.9,131.2z M873.7,97.9
				c0.8-10.7,6.1-16.3,13.6-16.3c7.7,0,11.3,6.6,11.2,16.3H873.7z"/>
		</g>
	</g>
</g>
</svg>
