<?xml version="1.0" encoding="utf-8"?>
<!-- Generator: Adobe Illustrator 22.1.0, SVG Export Plug-In . SVG Version: 6.00 Build 0)  -->
<svg version="1.1" id="Layer_1" xmlns="http://www.w3.org/2000/svg" xmlns:xlink="http://www.w3.org/1999/xlink" x="0px" y="0px"
	 viewBox="0 0 18 20" style="enable-background:new 0 0 18 20;" xml:space="preserve">
<style type="text/css">
	.st0{fill:#E62D87;}
	.st1{fill:#FFFFFF;}
</style>
<path class="st0" d="M9,0C4,0,0,4,0,9c0,4.2,2.8,7.7,6.7,8.7L9,20l2.3-2.3c3.9-1,6.7-4.5,6.7-8.7C18,4,14,0,9,0z"/>
<path class="st1" d="M6.9,10c0,0.4-0.6,0.3-1,0.3c-0.4,0-0.6-0.3-0.6-0.6C5.3,9.3,5.6,9,6,9C6.3,9,6.9,9.6,6.9,10z M12,9
	c-0.4,0-1,0.6-1,1s0.6,0.3,1,0.3s0.6-0.3,0.6-0.6C12.7,9.3,12.4,9,12,9z M14.1,7.2l-0.2,0.5c0,0.1-0.1,0.2-0.2,0.2h-0.6
	c0.4,0.4,0.7,0.9,0.7,1.4v1.1c0,0.3-0.1,0.6-0.3,0.8V12c0,0.4-0.4,0.8-0.8,0.8h-1c-0.4,0-0.8-0.4-0.8-0.8v-0.5H7.1V12
	c0,0.4-0.4,0.8-0.8,0.8h-1c-0.4,0-0.8-0.4-0.8-0.8v-0.8c-0.2-0.2-0.3-0.5-0.3-0.8V9.3c0-0.6,0.3-1.1,0.7-1.4H4.3
	c-0.1,0-0.2-0.1-0.2-0.2L3.9,7.2C3.8,7.1,4,6.9,4.1,6.9h0.6C4.9,6.9,5,7,5,7.1l0.1,0.3l0.6-1.3C6,5.5,6.5,5.2,7.2,5.2h3.7
	c0.6,0,1.2,0.4,1.4,0.9l0.6,1.3L13,7.1c0-0.1,0.1-0.2,0.2-0.2h0.6C14,6.9,14.2,7.1,14.1,7.2z M5.8,7.4c0.1,0,0.2,0,0.3,0h5.8
	c0.1,0,0.2,0,0.3,0l-0.5-1.1c-0.2-0.3-0.5-0.6-0.9-0.6H7.2C6.8,5.8,6.4,6,6.3,6.4L5.8,7.4L5.8,7.4z M6.4,11.6c-1.2,0-1.2,0-1.3,0V12
	c0,0.1,0.1,0.2,0.2,0.2h1c0.1,0,0.2-0.1,0.2-0.2V11.6z M12.8,11.5c-0.1,0-0.1,0-1.3,0V12c0,0.1,0.1,0.2,0.2,0.2h1
	c0.1,0,0.2-0.1,0.2-0.2V11.5z M11.9,8H6.1C5.4,8,4.8,8.6,4.8,9.3v1.1c0,0.3,0.2,0.5,0.5,0.5h7.4c0.3,0,0.5-0.2,0.5-0.5V9.3
	C13.2,8.6,12.6,8,11.9,8z M10.5,9.6h-3c-0.1,0-0.1,0-0.1,0.2c0,0.3,0.2,0.5,0.5,0.5h2.2c0.3,0,0.5-0.2,0.5-0.5
	C10.6,9.7,10.6,9.6,10.5,9.6z"/>
</svg>
