<?xml version="1.0" encoding="utf-8"?>
<!-- Generator: Adobe Illustrator 22.1.0, SVG Export Plug-In . SVG Version: 6.00 Build 0)  -->
<svg version="1.1" id="Layer_1" xmlns="http://www.w3.org/2000/svg" xmlns:xlink="http://www.w3.org/1999/xlink" x="0px" y="0px"
	 viewBox="0 0 18 20" style="enable-background:new 0 0 18 20;" xml:space="preserve">
<style type="text/css">
	.st0{fill:#00AAFF;}
	.st1{fill:#FFFFFF;}
</style>
<path class="st0" d="M9,0C4,0,0,4,0,9c0,4.2,2.8,7.7,6.7,8.7L9,20l2.3-2.3c3.9-1,6.7-4.5,6.7-8.7C18,4,14,0,9,0z"/>
<path class="st1" d="M11.4,10.7l1.3-1.2c0.3-0.2,0.2-0.7-0.1-0.8l-1.1-0.5V6.4c0-0.1-0.1-0.2-0.2-0.2h-0.7V5.5
	c0-0.2-0.2-0.4-0.4-0.4H7.9c-0.2,0-0.4,0.2-0.4,0.4v0.6H6.8c-0.1,0-0.2,0.1-0.2,0.2v1.8L5.5,8.7C5.1,8.8,5.1,9.2,5.3,9.5l1.3,1.2
	c0,0.5-0.8,1.7-2.2,1.7c-0.1,0-0.2,0.1-0.2,0.2v0.1c0,0.1,0.1,0.2,0.2,0.2c1,0,1.8-0.4,2.3-1.1c0.2,0.6,0.7,1.1,1.4,1.1H10
	c0.7,0,1.2-0.5,1.4-1.1c0.5,0.7,1.3,1.1,2.3,1.1c0.1,0,0.2-0.1,0.2-0.2v-0.1c0-0.1-0.1-0.2-0.2-0.2C12.2,12.4,11.4,11.2,11.4,10.7z
	 M8,5.6H10v0.5H8V5.6z M7.1,6.6h3.8V8L9.2,7.2c-0.1-0.1-0.3-0.1-0.4,0L7.1,8V6.6z M10.9,10.4v1c0,0.5-0.4,1-1,1H8c-0.5,0-1-0.4-1-1
	v-1L5.6,9.1L9,7.7l3.4,1.4L10.9,10.4z"/>
</svg>
